<?xml version="1.0" encoding="UTF-8" standalone="no"?>
<!-- Created with Inkscape (http://www.inkscape.org/) -->

<svg
   xmlns:dc="http://purl.org/dc/elements/1.1/"
   xmlns:cc="http://creativecommons.org/ns#"
   xmlns:rdf="http://www.w3.org/1999/02/22-rdf-syntax-ns#"
   xmlns:svg="http://www.w3.org/2000/svg"
   xmlns="http://www.w3.org/2000/svg"
   xmlns:sodipodi="http://sodipodi.sourceforge.net/DTD/sodipodi-0.dtd"
   xmlns:inkscape="http://www.inkscape.org/namespaces/inkscape"
   version="1.1"
   id="svg103987"
   xml:space="preserve"
   width="800"
   height="800"
   viewBox="0 0 800 800"
   sodipodi:docname="wreath-clipart-publicdomainvectors.org.svg"
   inkscape:version="0.92.4 (5da689c313, 2019-01-14)"><metadata
     id="metadata103993"><rdf:RDF><cc:Work
         rdf:about=""><dc:format>image/svg+xml</dc:format><dc:type
           rdf:resource="http://purl.org/dc/dcmitype/StillImage" /><dc:title></dc:title></cc:Work></rdf:RDF></metadata><defs
     id="defs103991"><clipPath
       clipPathUnits="userSpaceOnUse"
       id="clipPath104003"><path
         d="M 0,600 H 600 V 0 H 0 Z"
         id="path104001"
         inkscape:connector-curvature="0" /></clipPath></defs><sodipodi:namedview
     pagecolor="#ffffff"
     bordercolor="#666666"
     borderopacity="1"
     objecttolerance="10"
     gridtolerance="10"
     guidetolerance="10"
     inkscape:pageopacity="0"
     inkscape:pageshadow="2"
     inkscape:window-width="797"
     inkscape:window-height="480"
     id="namedview103989"
     showgrid="false"
     inkscape:zoom="0.295"
     inkscape:cx="400"
     inkscape:cy="400"
     inkscape:window-x="0"
     inkscape:window-y="0"
     inkscape:window-maximized="0"
     inkscape:current-layer="g103995" /><g
     id="g103995"
     inkscape:groupmode="layer"
     inkscape:label="wreath-clipart-publicdomainvectors.org"
     transform="matrix(1.3333333,0,0,-1.3333333,0,800)"><g
       id="g103997"><g
         id="g103999"
         clip-path="url(#clipPath104003)"><path
           d="m 414.738,124.844 0.312,-0.894 c -6.425,1.012 -12.689,1.591 -18.681,1.644 1.203,3.102 2.213,6.344 3.021,9.698 l 1.511,4.715 c 3.292,-6.616 7.968,-11.756 13.837,-15.163 m 62.696,278.486 c -2.961,1.508 -6.081,2.842 -9.334,3.99 l -1.729,0.74 c 4.29,2.043 8.001,4.795 11.007,8.215 l 1.27,0.18 -0.249,0.935 c 0.697,0.725 1.362,1.465 2.013,2.212 -1.363,-5.535 -2.391,-10.979 -2.978,-16.272 m 19.737,-157.696 c -1.079,3.141 -2.392,6.263 -3.931,9.344 l -1.243,2.985 c 5.202,-2.123 10.325,-3.181 15.159,-3.181 h 0.006 c 0.975,0 1.945,0.047 2.905,0.131 -4.617,-2.929 -8.952,-6.015 -12.896,-9.279 m -39.261,-56.988 -0.004,0.517 c 3.695,-3.418 7.728,-5.969 12.019,-7.623 -4.111,-0.863 -8.086,-1.874 -11.878,-3.074 0.178,3.332 0.135,6.727 -0.137,10.18 m -42.288,-64.781 0.405,0.201 c 0.187,-0.122 0.384,-0.222 0.571,-0.34 -0.327,0.052 -0.65,0.087 -0.976,0.139 M 201.079,139.98 c 0.685,-2.103 1.508,-4.641 1.514,-4.664 0.814,-3.365 1.825,-6.61 3.029,-9.722 -5.99,-0.053 -12.252,-0.632 -18.675,-1.644 l 0.309,0.894 c 5.864,3.405 10.53,8.535 13.823,15.136 M 186,124.084 l 0.433,-0.208 c -0.348,-0.059 -0.689,-0.092 -1.037,-0.15 0.199,0.124 0.404,0.231 0.604,0.358 m -62.406,293.306 -0.249,-0.935 1.273,-0.18 c 3.001,-3.415 6.705,-6.165 10.986,-8.205 -0.96,-0.423 -1.673,-0.737 -1.685,-0.742 -3.263,-1.15 -6.389,-2.486 -9.357,-3.997 -0.587,5.292 -1.617,10.736 -2.979,16.27 0.652,-0.746 1.318,-1.486 2.011,-2.211 m 20.492,-228.227 v -0.506 c -0.273,-3.452 -0.318,-6.857 -0.14,-10.187 -3.789,1.196 -7.768,2.207 -11.875,3.073 4.289,1.652 8.32,4.202 12.015,7.62 m -49.248,65.619 v 0 c 4.832,0 9.945,1.052 15.14,3.173 -0.625,-1.525 -1.199,-2.926 -1.208,-2.945 -1.547,-3.095 -2.865,-6.226 -3.947,-9.375 -3.945,3.264 -8.28,6.349 -12.897,9.278 0.963,-0.084 1.933,-0.131 2.912,-0.131 m 471.225,63.986 c 0.374,7.859 -0.347,15.917 -2.146,24.047 l -1.583,6.212 c -1.993,6.895 -4.719,13.634 -8.137,20.099 l -4.172,7.892 -6.582,-6.03 c -16.089,-14.738 -28.387,-30.62 -36.089,-46.502 -2.292,2.415 -4.787,4.717 -7.474,6.892 l -5.089,4.71 c 5.265,0.954 10.041,2.945 14.131,5.899 l 1.253,0.897 c 16.22,10.682 26.049,27.218 27.688,46.628 0.567,6.697 0.118,13.669 -1.33,20.727 l -1.883,7.417 c -2.303,7.595 -5.72,15.01 -10.205,22.125 l -3.418,5.082 c -4.177,5.821 -8.996,11.258 -14.381,16.208 l -6.572,6.042 -4.186,-7.883 c -0.079,-0.148 -0.148,-0.296 -0.227,-0.448 0.061,3.385 -0.141,6.814 -0.631,10.277 -0.937,6.64 -2.929,13.342 -5.924,19.92 l -3.387,6.626 c -3.936,6.926 -8.934,13.427 -14.914,19.4 l -4.612,4.331 c -5.355,4.718 -11.24,8.916 -17.56,12.521 l -7.749,4.422 -2.323,-8.619 c -5.678,-21.068 -7.541,-41.069 -5.521,-58.606 -3.225,0.81 -6.56,1.414 -9.989,1.806 l -7.875,0.52 c -0.523,0.01 -1.045,0.015 -1.568,0.015 -1.505,0 -3.021,-0.066 -4.537,-0.145 3.321,1.77 6.179,4.073 8.505,6.869 l 1.588,1.899 c 10.001,11.814 13.917,26.663 11.002,41.964 -1.014,5.318 -2.865,10.622 -5.504,15.778 l -3.771,6.442 c -3.286,4.962 -7.277,9.592 -11.926,13.822 l -4.696,3.96 c -4.26,3.328 -8.874,6.263 -13.78,8.759 l -7.952,4.047 -1.909,-8.715 c -3.544,-16.166 -4.368,-31.452 -2.478,-44.895 -1.969,0.326 -3.981,0.557 -6.028,0.695 l -7.403,0.089 c -5.968,-0.257 -12.018,-1.297 -18.024,-3.098 l -5.468,-1.848 c -5.164,-1.955 -10.177,-4.444 -14.952,-7.428 l -7.571,-4.73 6.486,-6.129 c 19.614,-18.532 41.276,-29.78 60.278,-31.502 v -0.284 c -6.879,-2.162 -13.59,-5.067 -20.019,-8.67 l -7.786,-4.363 6.188,-6.432 c 17.058,-17.726 35.481,-30.593 53.27,-37.596 -2.671,-0.57 -5.334,-1.209 -7.978,-1.985 l -8.565,-2.516 4.6,-7.652 c 11.77,-19.582 25.718,-35.373 40.223,-46.166 -0.291,0.02 -0.581,0.054 -0.877,0.071 l -8.911,0.491 1.775,-8.746 c 4.01,-19.773 10.153,-36.027 17.464,-48.99 -1.188,0.678 -2.373,1.363 -3.59,2.002 l -7.907,4.148 -2.014,-8.699 c -4.298,-18.577 -5.635,-36.434 -4.206,-52.326 -0.854,1.088 -1.704,2.178 -2.606,3.237 l -5.773,6.81 -5.129,-7.309 c -13.596,-19.371 -22.555,-39.422 -26.282,-57.809 -0.976,3.217 -2.083,6.407 -3.367,9.55 l -3.373,8.272 -7.146,-5.357 c -46.045,-34.506 -60.005,-73.338 -51.596,-97.401 -8.019,-1.789 -19.172,-4.91 -30.866,-10.153 -11.693,5.243 -22.846,8.364 -30.865,10.153 8.405,24.063 -5.553,62.895 -51.596,97.401 l -7.146,5.357 -3.372,-8.272 c -1.285,-3.145 -2.393,-6.338 -3.366,-9.554 -3.73,18.385 -12.691,38.442 -26.285,57.813 l -5.131,7.311 -5.774,-6.812 c -0.897,-1.059 -1.751,-2.147 -2.604,-3.233 1.43,15.892 0.094,33.745 -4.206,52.322 l -2.012,8.697 -7.908,-4.146 c -1.217,-0.639 -2.404,-1.325 -3.592,-2.005 7.312,12.963 13.454,29.219 17.465,48.993 l 1.776,8.746 -8.912,-0.491 c -0.293,-0.017 -0.584,-0.051 -0.878,-0.071 14.504,10.793 28.454,26.584 40.225,46.166 l 4.601,7.652 -8.565,2.516 c -2.644,0.776 -5.31,1.415 -7.982,1.985 17.788,7.001 36.213,19.87 53.273,37.596 l 6.187,6.432 -7.786,4.363 c -6.424,3.603 -13.14,6.508 -20.021,8.67 v 0.283 c 19.001,1.719 40.664,12.968 60.279,31.503 l 6.487,6.129 -7.57,4.731 c -4.634,2.895 -9.489,5.323 -14.49,7.249 l -5.954,2.035 c -6.001,1.795 -12.039,2.833 -18,3.089 l -7.437,-0.089 c -2.034,-0.14 -4.036,-0.372 -5.994,-0.695 1.892,13.442 1.066,28.728 -2.478,44.895 l -1.91,8.717 -7.952,-4.049 c -4.905,-2.498 -9.522,-5.433 -13.779,-8.759 l -4.698,-3.96 c -4.648,-4.23 -8.639,-8.86 -11.925,-13.822 l -3.753,-6.41 c -2.65,-5.167 -4.508,-10.483 -5.525,-15.812 -2.906,-15.269 0.99,-30.089 10.947,-41.893 l 1.644,-1.963 c 2.327,-2.801 5.186,-5.102 8.508,-6.874 -1.515,0.079 -3.033,0.145 -4.537,0.145 -0.599,0 -1.199,-0.007 -1.799,-0.019 0,0 -7.565,-0.501 -7.619,-0.512 -3.438,-0.393 -6.784,-0.997 -10.013,-1.81 2.017,17.537 0.153,37.54 -5.522,58.606 l -2.321,8.619 -7.753,-4.422 c -6.404,-3.654 -12.362,-7.915 -17.769,-12.71 l -4.447,-4.189 c -5.914,-5.912 -10.865,-12.347 -14.781,-19.198 0,0 -3.439,-6.691 -3.461,-6.755 -2.999,-6.579 -4.996,-13.287 -5.937,-19.944 -0.491,-3.464 -0.691,-6.894 -0.631,-10.279 -0.081,0.152 -0.146,0.3 -0.227,0.448 l -4.186,7.882 -6.569,-6.04 C 89.968,456.123 85.146,450.688 80.965,444.863 l -3.458,-5.146 c -4.463,-7.096 -7.866,-14.489 -10.161,-22.061 0,0 -1.868,-7.301 -1.877,-7.383 -1.455,-7.08 -1.906,-14.064 -1.339,-20.762 1.643,-19.436 11.496,-35.993 27.761,-46.676 l 1.183,-0.848 c 4.077,-2.947 8.843,-4.937 14.094,-5.893 -1.28,-1.196 -5.011,-4.679 -5.041,-4.708 -2.692,-2.177 -5.191,-4.482 -7.486,-6.901 -7.7,15.883 -19.999,31.765 -36.093,46.503 l -6.579,6.03 -4.172,-7.892 c -3.424,-6.479 -6.154,-13.228 -8.145,-20.129 l -1.569,-6.158 c -1.805,-8.139 -2.524,-16.207 -2.151,-24.071 0,0 0.674,-7.403 0.694,-7.496 0.999,-7.162 2.912,-13.899 5.688,-20.027 3.395,-7.49 8.006,-13.997 13.604,-19.381 -1.077,0.371 -2.128,0.761 -3.223,1.117 l -8.488,2.756 -0.522,-8.91 c -0.424,-7.262 -0.119,-14.476 0.91,-21.523 l 1.114,-6.247 c 1.687,-8.015 4.297,-15.531 7.789,-22.438 l 3.751,-6.701 c 0.091,-0.133 0.184,-0.259 0.258,-0.359 3.88,-6.106 8.415,-11.447 13.486,-15.873 4.407,-3.848 9.174,-6.992 14.211,-9.421 l -8.742,-0.619 2.858,-8.455 c 2.331,-6.888 5.318,-13.459 8.913,-19.598 l 3.406,-5.423 c 4.67,-6.937 10.033,-13.026 16.007,-18.183 0,0 5.869,-4.635 5.956,-4.688 5.888,-4.21 12.1,-7.459 18.471,-9.664 6.336,-2.196 12.816,-3.336 19.284,-3.479 -1.074,-0.415 -2.146,-0.8 -3.219,-1.235 l -8.272,-3.362 5.344,-7.152 c 4.294,-5.746 9.106,-10.999 14.345,-15.673 l 5.066,-4.234 c 6.575,-5.137 13.549,-9.263 20.812,-12.318 0,0 7.163,-2.639 7.249,-2.66 6.898,-2.171 13.808,-3.33 20.547,-3.449 l 1.172,-0.012 c 16.851,0 32.324,6.476 43.974,18.314 4.115,-0.72 11.264,-2.403 19.697,-6.23 C 266.402,67.563 257.417,57.34 251.28,45.648 l -2.718,-5.182 24.257,-18.304 3.75,7.273 c 6.5,12.605 14.702,23.293 24.428,31.845 9.727,-8.553 17.93,-19.243 24.429,-31.845 l 3.752,-7.273 24.253,18.304 -2.718,5.182 c -6.136,11.693 -15.121,21.915 -26.79,30.497 8.431,3.827 15.582,5.51 19.695,6.23 11.651,-11.838 27.124,-18.314 43.976,-18.314 l 1.171,0.012 c 6.73,0.119 13.629,1.277 20.515,3.44 l 7.504,2.765 c 7.185,3.043 14.087,7.139 20.595,12.226 l 5.059,4.23 c 5.244,4.674 10.05,9.927 14.345,15.673 l 5.345,7.152 -8.269,3.362 c -1.075,0.435 -2.147,0.82 -3.22,1.235 6.466,0.143 12.944,1.285 19.28,3.479 6.37,2.204 12.576,5.451 18.459,9.654 l 5.969,4.698 c 5.959,5.14 11.311,11.216 15.975,18.129 l 3.439,5.477 c 3.595,6.139 6.585,12.71 8.914,19.598 l 2.859,8.455 -8.743,0.619 c 5.039,2.429 9.804,5.573 14.208,9.419 5.07,4.423 9.6,9.76 13.484,15.866 l 0.08,0.099 3.987,7.082 c 3.436,6.815 6.013,14.222 7.694,22.123 l 1.192,6.703 c 0.998,6.961 1.294,14.092 0.875,21.268 l -0.521,8.913 -8.49,-2.757 c -1.095,-0.356 -2.146,-0.746 -3.223,-1.117 5.601,5.384 10.21,11.891 13.6,19.379 2.775,6.12 4.687,12.84 5.681,19.983 z"
           style="fill:#fcee21;fill-opacity:1;fill-rule:nonzero;stroke:none"
           id="path104005"
           inkscape:connector-curvature="0" /><path
           d="m 125.782,411.66 c 0.292,-1.589 0.547,-3.149 0.764,-4.676 1.127,0.511 2.272,0.998 3.433,1.463 -1.49,0.978 -2.891,2.049 -4.197,3.213 m -3.251,-12.09 -0.388,3.494 c -0.546,4.937 -1.531,10.305 -2.923,15.955 l -2.389,9.696 6.582,-7.513 c 0.629,-0.72 1.27,-1.431 1.938,-2.13 l 0.946,-0.987 -0.007,-0.028 0.155,-0.176 c 2.761,-3.141 6.195,-5.702 10.205,-7.615 l 4.794,-2.284 -6.524,-2.871 c -3.336,-1.185 -6.385,-2.485 -9.255,-3.947 z m 349.487,8.877 c 1.153,-0.459 2.297,-0.948 3.43,-1.463 0.219,1.526 0.474,3.087 0.766,4.676 -1.308,-1.164 -2.709,-2.235 -4.196,-3.213 m 7.448,-8.88 -3.135,1.596 c -2.855,1.454 -5.895,2.753 -9.042,3.864 l -6.824,2.918 4.86,2.312 c 4.021,1.916 7.465,4.478 10.225,7.624 l 0.152,0.174 -0.004,0.03 0.948,0.99 c 0.667,0.696 1.309,1.407 1.935,2.127 l 6.588,7.531 -2.395,-9.713 c -1.391,-5.651 -2.376,-11.02 -2.922,-15.958 z M 99.643,252.665 c 1.408,-1.007 2.767,-2.013 4.067,-3.023 0.558,1.41 1.16,2.82 1.809,4.217 -1.975,-0.547 -3.936,-0.945 -5.876,-1.194 m 6.336,-11.146 -2.708,2.242 c -3.684,3.052 -7.939,6.112 -12.647,9.096 l -8.413,5.336 9.924,-0.856 c 5.393,-0.459 11.092,0.491 16.924,2.87 l 5.369,2.193 -3.403,-8.301 c -1.571,-3.163 -2.859,-6.217 -3.902,-9.255 z m 390.496,12.341 c 0.64,-1.381 1.247,-2.793 1.81,-4.219 1.301,1.011 2.66,2.017 4.069,3.024 -1.941,0.249 -3.904,0.647 -5.879,1.195 m -0.463,-12.343 -1.142,3.327 c -1.038,3.026 -2.319,6.068 -3.806,9.046 l -3.557,8.533 5.409,-2.209 c 5.848,-2.386 11.563,-3.341 16.943,-2.877 l 9.925,0.856 -8.415,-5.336 c -4.699,-2.979 -8.957,-6.041 -12.647,-9.098 z M 139.177,182.369 c 0.756,-0.197 1.502,-0.398 2.233,-0.605 -0.005,0.695 -0.002,1.394 0.011,2.095 -0.736,-0.526 -1.485,-1.021 -2.244,-1.49 m 7.385,-7.278 -3.349,1.06 c -3.538,1.117 -7.455,2.13 -11.642,3.012 l -8.044,1.694 7.668,2.955 c 4.012,1.545 7.793,3.948 11.24,7.138 l 4.083,3.775 v -6.068 c -0.269,-3.518 -0.316,-6.836 -0.143,-10.057 z m 314.012,8.768 c 0.014,-0.698 0.015,-1.397 0.008,-2.095 0.733,0.207 1.478,0.408 2.234,0.605 -0.756,0.469 -1.503,0.964 -2.242,1.49 m -5.145,-8.771 0.189,3.511 c 0.173,3.215 0.128,6.529 -0.134,9.857 l -0.035,6.297 4.109,-3.803 c 3.449,-3.193 7.23,-5.594 11.24,-7.14 l 7.681,-2.96 -8.055,-1.69 c -4.183,-0.879 -8.099,-1.89 -11.642,-3.013 z m -55.623,-47.149 c 2.395,-0.094 4.862,-0.27 7.39,-0.522 -2.087,1.934 -3.96,4.133 -5.618,6.592 -0.5,-2.015 -1.096,-4.058 -1.772,-6.07 m 28.262,-8.592 -13.395,2.2 c -6.486,1.022 -12.653,1.563 -18.324,1.615 l -3.514,0.029 1.267,3.28 c 1.16,2.992 2.145,6.155 2.928,9.39 l 3.377,10.59 2.673,-5.358 c 3.097,-6.224 7.431,-10.985 12.879,-14.145 l 0.19,-0.113 0.041,0.022 1.707,-1.079 z m -227.655,14.66 c -1.658,-2.457 -3.531,-4.657 -5.615,-6.59 2.529,0.252 4.996,0.428 7.391,0.522 -0.665,1.98 -1.259,4.008 -1.776,6.068 m -26.611,-14.721 12.021,7.583 0.042,-0.021 0.169,0.095 c 5.443,3.164 9.771,7.913 12.867,14.124 l 2.652,5.311 3.353,-10.302 c 0.836,-3.433 1.823,-6.601 2.986,-9.605 l 1.269,-3.28 -3.516,-0.029 c -5.671,-0.052 -11.832,-0.593 -18.319,-1.615 l -3.033,-0.479 z m -2.048,374.728 c 0.557,-7.588 0.547,-14.91 -0.044,-21.839 2.283,0.463 4.619,0.836 6.982,1.106 0.015,0.011 0.016,0.011 6.553,0.444 -0.964,0.889 -1.865,1.838 -2.7,2.844 l -1.639,1.957 c -4.001,4.743 -7.063,9.957 -9.152,15.488 m 244.982,-20.302 6.473,-0.423 c 2.433,-0.277 4.788,-0.651 7.077,-1.117 -0.592,6.932 -0.602,14.254 -0.045,21.839 -2.101,-5.557 -5.187,-10.802 -9.218,-15.564 l -1.582,-1.889 c -0.837,-1.007 -1.74,-1.956 -2.705,-2.846 m 83.033,-138.919 1.763,-1.629 c 1.758,-1.421 3.501,-2.961 5.169,-4.568 2.761,5.293 6.041,10.604 9.785,15.861 -1.585,-1.263 -3.245,-2.465 -4.971,-3.604 l -1.177,-0.844 c -3.171,-2.29 -6.713,-4.039 -10.569,-5.216 m -414.248,9.646 c 3.74,-5.253 7.013,-10.557 9.772,-15.843 1.68,1.618 3.451,3.182 5.294,4.675 10e-4,0.005 0.724,0.681 1.628,1.526 -3.853,1.177 -7.392,2.925 -10.565,5.218 l -1.177,0.844 c -1.722,1.131 -3.373,2.324 -4.952,3.58 M 300.998,64.52 l 1.606,-1.414 c 9.95,-8.752 18.357,-19.703 24.984,-32.557 l 2.427,-4.708 20.303,15.323 -1.759,3.356 c -5.944,11.33 -14.719,21.313 -26.08,29.665 l -3.34,2.458 3.779,1.716 c 8.486,3.852 15.713,5.612 20.284,6.413 l 1.255,0.217 0.896,-0.909 c 11.162,-11.339 26.163,-17.586 42.241,-17.586 l 1.147,0.011 c 6.476,0.113 13.147,1.234 19.81,3.328 l 7.391,2.729 c 6.872,2.912 13.618,6.917 19.937,11.861 l 5.005,4.178 c 5.045,4.503 9.761,9.658 13.952,15.26 l 3.458,4.629 -5.353,2.179 c -0.644,0.261 -1.291,0.505 -1.933,0.745 l -12.688,4.903 12.265,0.271 c 6.289,0.139 12.528,1.265 18.537,3.346 6.149,2.125 12.151,5.266 17.842,9.333 l 5.879,4.633 c 5.696,4.914 10.928,10.853 15.461,17.579 l 3.398,5.407 c 3.465,5.922 6.397,12.366 8.669,19.086 l 1.851,5.47 -14.724,1.04 8.234,3.972 c 4.875,2.353 9.476,5.4 13.669,9.061 4.887,4.266 9.271,9.426 13.028,15.339 l 0.114,0.167 3.889,6.905 c 3.282,6.515 5.802,13.761 7.434,21.434 l 1.173,6.621 c 0.962,6.712 1.251,13.705 0.844,20.701 l -0.336,5.769 -5.498,-1.783 c -0.654,-0.213 -1.295,-0.439 -1.934,-0.665 l -11.646,-4.001 7.923,7.618 c 5.448,5.235 9.847,11.503 13.072,18.628 2.677,5.913 4.524,12.411 5.485,19.313 l 0.693,7.436 c 0.354,7.514 -0.351,15.388 -2.101,23.291 l -1.563,6.142 c -1.925,6.653 -4.599,13.26 -7.932,19.56 l -2.7,5.105 -4.258,-3.901 C 529.371,354.8 517.082,338.973 509.54,323.424 l -1.529,-3.163 -2.422,2.551 c -2.215,2.335 -4.651,4.581 -7.24,6.674 l -8.786,8.126 4.792,0.868 c 4.925,0.891 9.348,2.735 13.141,5.48 l 1.264,0.903 c 15.66,10.314 25.103,26.223 26.681,44.856 0.546,6.46 0.111,13.2 -1.292,20.032 l -1.858,7.309 c -2.209,7.27 -5.55,14.517 -9.905,21.426 l -3.376,5.019 c -4.039,5.629 -8.768,10.957 -14.008,15.777 l -4.255,3.911 -7.697,-14.642 0.18,10.276 c 0.059,3.298 -0.148,6.624 -0.607,9.891 -0.905,6.41 -2.834,12.889 -5.73,19.255 l -3.339,6.525 c -3.77,6.628 -8.654,12.98 -14.469,18.787 l -4.558,4.277 c -5.168,4.554 -10.94,8.67 -17.097,12.182 l -5.017,2.862 -1.503,-5.578 c -5.544,-20.573 -7.43,-40.525 -5.454,-57.695 l 0.403,-3.496 -3.411,0.859 c -3.113,0.781 -6.367,1.37 -9.677,1.748 l -7.754,0.509 c -0.396,0.005 -0.903,0.009 -1.409,0.009 -1.462,0 -2.938,-0.064 -4.411,-0.141 l -10.916,-0.565 9.646,5.141 c 3.048,1.624 5.668,3.736 7.779,6.276 l 1.593,1.908 c 9.525,11.249 13.241,25.432 10.477,39.947 -0.969,5.087 -2.746,10.177 -5.277,15.124 l -3.708,6.322 c -3.1,4.678 -6.98,9.173 -11.462,13.252 l -4.628,3.899 c -4.059,3.17 -8.562,6.031 -13.313,8.451 l -5.148,2.62 -1.236,-5.642 c -3.492,-15.929 -4.315,-30.744 -2.446,-44.036 l 0.462,-3.278 -3.265,0.54 c -1.887,0.312 -3.838,0.537 -5.798,0.67 l -7.268,0.081 c -5.631,-0.247 -11.496,-1.256 -17.296,-2.994 l -5.389,-1.824 c -4.927,-1.867 -9.814,-4.296 -14.44,-7.186 l -4.9,-3.061 4.196,-3.968 c 18.983,-17.935 40.426,-29.178 58.826,-30.848 l 2.215,-0.198 v -4.291 l -1.704,-0.537 c -6.712,-2.109 -13.29,-4.957 -19.557,-8.471 l -5.041,-2.823 4.004,-4.163 c 16.61,-17.258 34.733,-30.061 52.409,-37.021 l 7.522,-2.962 -7.907,-1.679 c -2.921,-0.622 -5.472,-1.255 -7.799,-1.939 l -5.543,-1.628 2.977,-4.954 c 11.389,-18.945 25.08,-34.668 39.591,-45.468 l 6.6,-4.912 -14.831,0.923 1.149,-5.662 c 3.739,-18.428 9.526,-34.672 17.202,-48.281 l 4.34,-7.701 -7.923,4.543 c -1.077,0.615 -2.152,1.233 -3.26,1.812 l -5.115,2.687 -1.303,-5.631 c -4.143,-17.898 -5.578,-35.728 -4.154,-51.56 l 0.736,-8.192 -5.072,6.473 c -0.878,1.118 -1.689,2.157 -2.545,3.163 l -3.739,4.409 -3.319,-4.729 c -13.208,-18.817 -22.159,-38.49 -25.892,-56.897 l -1.921,-9.463 -2.789,9.244 c -0.989,3.265 -2.094,6.406 -3.289,9.336 l -2.183,5.35 -4.627,-3.465 c -45.892,-34.389 -58.561,-72.319 -50.759,-94.652 l 0.902,-2.582 -2.668,-0.594 c -7.352,-1.641 -18.594,-4.705 -30.401,-9.996 l -0.994,-0.448 -0.996,0.448 c -11.802,5.288 -23.045,8.355 -30.401,9.996 l -2.665,0.594 0.899,2.582 c 7.801,22.333 -4.867,60.263 -50.758,94.654 l -4.624,3.463 -2.184,-5.35 c -1.193,-2.923 -2.299,-6.065 -3.289,-9.341 l -2.793,-9.239 -1.918,9.458 c -3.735,18.407 -12.688,38.085 -25.894,56.902 l -3.32,4.732 -3.738,-4.407 c -0.877,-1.037 -1.711,-2.102 -2.545,-3.165 l -5.072,-6.474 0.735,8.194 c 1.426,15.835 -0.01,33.663 -4.152,51.556 l -1.303,5.631 -5.118,-2.687 c -1.115,-0.584 -2.203,-1.21 -3.29,-1.835 l -7.9,-4.533 4.349,7.712 c 7.675,13.608 13.462,29.853 17.201,48.283 l 1.149,5.662 -14.827,-0.919 6.594,4.908 c 14.512,10.8 28.204,26.523 39.595,45.468 l 2.976,4.954 -5.542,1.628 c -2.326,0.684 -4.877,1.317 -7.803,1.939 l -7.911,1.679 7.526,2.962 c 17.678,6.96 35.803,19.763 52.411,37.021 l 4.006,4.163 -5.041,2.823 c -6.261,3.512 -12.845,6.361 -19.561,8.471 l -1.703,0.537 v 4.288 l 2.213,0.201 c 18.401,1.666 39.842,12.911 58.827,30.85 l 4.201,3.967 -4.901,3.061 c -4.488,2.804 -9.226,5.173 -14.077,7.044 l -5.864,2 c -5.712,1.708 -11.568,2.715 -17.318,2.961 l -7.303,-0.09 c -1.806,-0.128 -3.744,-0.351 -5.63,-0.663 l -3.265,-0.538 0.462,3.276 c 1.868,13.285 1.047,28.102 -2.445,44.036 l -1.237,5.643 -5.147,-2.623 c -4.751,-2.417 -9.254,-5.279 -13.385,-8.506 l -4.627,-3.903 c -4.415,-4.02 -8.297,-8.519 -11.464,-13.304 l -3.683,-6.3 c -2.478,-4.84 -4.26,-9.94 -5.234,-15.037 -2.755,-14.482 0.943,-28.638 10.417,-39.867 l 1.651,-1.972 c 2.116,-2.548 4.734,-4.662 7.785,-6.288 l 9.646,-5.141 -10.914,0.565 c -2.063,0.107 -4.113,0.166 -6.163,0.124 0.028,0 -7.032,-0.469 -7.449,-0.504 v 0.006 c -3.417,-0.408 -6.599,-0.989 -9.641,-1.751 l -3.41,-0.857 0.4,3.494 c 1.979,17.169 0.093,37.12 -5.452,57.695 l -1.501,5.578 -5.02,-2.862 c -6.241,-3.561 -12.082,-7.74 -17.359,-12.416 l -4.394,-4.14 c -5.691,-5.691 -10.533,-11.979 -14.334,-18.635 0,-10e-4 -3.183,-6.19 -3.382,-6.598 l -0.008,0.003 c -2.921,-6.484 -4.817,-12.891 -5.714,-19.237 -0.462,-3.26 -0.667,-6.589 -0.609,-9.894 l 0.182,-10.276 -7.696,14.639 -4.253,-3.908 C 91.748,454.457 87.02,449.129 82.943,443.445 l -3.417,-5.085 c -4.294,-6.83 -7.623,-14.053 -9.855,-21.406 0.003,-0.003 -1.718,-6.735 -1.828,-7.208 l -0.008,0.002 c -1.403,-6.974 -1.821,-13.643 -1.281,-20.03 1.576,-18.663 11.049,-34.589 26.671,-44.85 l 1.266,-0.905 c 3.795,-2.74 8.203,-4.581 13.113,-5.475 l 4.759,-0.868 -8.568,-8.004 c -2.733,-2.219 -5.171,-4.467 -7.391,-6.804 l -2.418,-2.552 -1.535,3.164 c -7.536,15.549 -19.828,31.376 -35.546,45.77 l -4.259,3.901 -2.698,-5.105 c -3.34,-6.322 -6.018,-12.937 -7.958,-19.667 l -1.549,-6.085 c -1.737,-7.83 -2.441,-15.713 -2.079,-23.354 0.003,0 0.624,-6.826 0.678,-7.311 0.962,-6.898 2.811,-13.412 5.491,-19.324 3.227,-7.126 7.626,-13.395 13.073,-18.632 l 7.928,-7.62 -11.638,4 c -0.645,0.228 -1.288,0.457 -1.948,0.671 l -5.494,1.783 -0.34,-5.766 c -0.414,-7.079 -0.114,-14.154 0.892,-21.028 l 1.099,-6.173 c 1.625,-7.711 4.174,-15.061 7.565,-21.769 l 3.785,-6.697 c 3.863,-6.066 8.248,-11.228 13.141,-15.501 4.189,-3.658 8.788,-6.708 13.667,-9.063 l 8.236,-3.972 -14.723,-1.04 1.852,-5.47 c 2.27,-6.719 5.2,-13.163 8.706,-19.152 l 3.367,-5.354 c 4.491,-6.671 9.734,-12.626 15.536,-17.638 0.003,0.002 5.398,-4.261 5.805,-4.569 5.669,-4.051 11.675,-7.196 17.828,-9.325 6.007,-2.081 12.244,-3.207 18.543,-3.346 l 12.264,-0.271 -12.68,-4.9 c -0.647,-0.242 -1.294,-0.487 -1.942,-0.748 l -5.352,-2.179 3.459,-4.629 c 4.185,-5.601 8.903,-10.754 14.014,-15.312 l 5.009,-4.181 c 6.322,-4.941 13.136,-8.977 20.192,-11.943 0.006,0 6.602,-2.432 7.072,-2.594 l -0.001,-0.007 c 6.794,-2.107 13.394,-3.206 19.826,-3.319 l 1.154,-0.011 c 16.054,0 31.055,6.247 42.216,17.586 l 0.896,0.909 1.257,-0.217 c 4.568,-0.801 11.795,-2.561 20.284,-6.412 l 3.778,-1.717 -3.344,-2.458 C 268.158,65.833 259.381,55.854 253.434,44.52 l -1.759,-3.356 20.305,-15.323 2.428,4.708 c 6.629,12.857 15.035,23.808 24.984,32.557 z m 27.34,-46.038 -5.073,9.837 c -5.985,11.61 -13.47,21.587 -22.267,29.688 -8.795,-8.097 -16.28,-18.073 -22.268,-29.688 l -5.074,-9.837 -28.206,21.286 3.676,7.01 c 5.694,10.851 13.81,20.511 24.159,28.764 -5.677,2.264 -10.556,3.517 -14.097,4.209 -11.98,-11.696 -27.834,-18.122 -44.786,-18.122 l -1.198,0.013 c -6.993,0.124 -14.138,1.321 -21.251,3.561 0.001,-0.013 -0.096,0.019 -7.362,2.697 -7.553,3.176 -14.743,7.429 -21.466,12.684 l -5.13,4.284 c -5.415,4.826 -10.351,10.223 -14.73,16.082 l -7.231,9.673 5.188,2.11 c -3.363,0.606 -6.685,1.473 -9.946,2.602 -6.593,2.284 -13.017,5.644 -19.088,9.984 -0.007,-0.001 0.308,-0.265 -6.05,4.761 -6.213,5.359 -11.742,11.638 -16.515,18.733 l -3.449,5.485 c -3.712,6.341 -6.78,13.083 -9.156,20.114 l -3.87,11.44 3.822,0.271 c -2.638,1.715 -5.17,3.628 -7.576,5.731 -5.244,4.577 -9.935,10.093 -13.94,16.4 10e-4,-0.002 10e-4,-0.003 10e-4,-0.003 -0.008,0 -0.114,0.146 -0.217,0.3 l -3.863,6.881 c -3.629,7.177 -6.32,14.924 -8.047,23.125 l -1.126,6.321 c -1.065,7.276 -1.379,14.684 -0.945,22.093 l 0.704,12.053 6.035,-1.961 c -3.097,4.012 -5.741,8.419 -7.897,13.178 -2.871,6.338 -4.85,13.302 -5.88,20.695 -0.011,0.017 -0.021,0.057 -0.711,7.613 -0.388,8.177 0.354,16.491 2.2,24.816 l 1.587,6.233 c 2.053,7.123 4.856,14.049 8.351,20.665 l 5.642,10.675 8.903,-8.156 c 3.055,-2.797 5.986,-5.649 8.781,-8.545 -4.019,7.569 -6.501,16.022 -7.265,25.071 -0.585,6.927 -0.122,14.147 1.38,21.454 -0.01,0.013 -0.007,0.037 1.902,7.497 2.385,7.873 5.894,15.493 10.459,22.752 l 3.499,5.21 c 4.313,6.012 9.265,11.591 14.759,16.642 l 8.887,8.173 1.747,-3.294 c 0.065,0.554 0.136,1.107 0.215,1.66 0.975,6.887 3.038,13.824 6.131,20.612 -0.004,0.015 -0.003,0.021 3.514,6.857 4.067,7.125 9.171,13.759 15.223,19.807 l 4.501,4.241 c 5.581,4.948 11.697,9.323 18.229,13.052 l 10.488,5.98 3.14,-11.658 c 1.081,-4.015 2.029,-8.007 2.836,-11.966 0.158,2.026 0.43,4.064 0.819,6.109 1.06,5.553 2.993,11.093 5.75,16.465 l 3.818,6.531 c 3.459,5.235 7.602,10.039 12.386,14.391 l 4.767,4.021 c 4.448,3.477 9.218,6.508 14.243,9.065 l 10.758,5.48 2.585,-11.793 c 3.342,-15.247 4.316,-29.551 2.905,-42.57 1.005,0.115 2.016,0.207 3.025,0.275 l 7.574,0.095 c 6.285,-0.268 12.54,-1.34 18.725,-3.191 l 6.043,-2.063 c 5.226,-2.012 10.242,-4.52 14.993,-7.488 l 10.241,-6.398 -8.775,-8.293 c -17.083,-16.14 -35.517,-26.817 -52.813,-30.734 4.117,-1.686 8.156,-3.636 12.074,-5.833 l 10.532,-5.902 -8.372,-8.701 c -15.001,-15.586 -31.255,-27.663 -47.398,-35.26 0.352,-0.1 0.7,-0.199 1.041,-0.301 l 11.585,-3.404 -6.222,-10.35 c -10.123,-16.839 -22.05,-31.229 -34.795,-42.039 l 5.286,0.29 -2.402,-11.832 c -3.21,-15.821 -7.905,-30.1 -13.985,-42.567 l 7.292,3.826 2.723,-11.765 c 3.614,-15.607 5.223,-31.19 4.728,-45.541 l 5.67,6.693 6.939,-9.891 c 11.652,-16.603 20.097,-33.902 24.703,-50.513 0.232,0.599 0.467,1.193 0.706,1.776 l 4.563,11.188 9.665,-7.247 c 46.182,-34.607 59.868,-73.329 53.237,-97.568 7.264,-1.745 17.258,-4.653 27.767,-9.27 10.509,4.617 20.505,7.525 27.768,9.27 -6.637,24.239 7.049,62.959 53.235,97.568 l 9.667,7.247 4.562,-11.188 c 0.238,-0.583 0.474,-1.173 0.705,-1.769 4.605,16.605 13.048,33.903 24.702,50.506 l 6.935,9.887 5.676,-6.69 c -0.495,14.346 1.111,29.93 4.724,45.542 l 2.727,11.768 7.289,-3.827 c -6.081,12.466 -10.773,26.746 -13.985,42.565 l -2.4,11.832 5.283,-0.29 c -12.743,10.81 -24.671,25.2 -34.795,42.039 l -6.221,10.35 11.586,3.404 c 0.343,0.102 0.69,0.201 1.041,0.299 -16.143,7.599 -32.396,19.676 -47.399,35.262 l -8.37,8.701 10.532,5.902 c 3.923,2.198 7.959,4.147 12.078,5.833 -17.302,3.918 -35.739,14.595 -52.816,30.734 l -8.777,8.293 10.242,6.397 c 4.896,3.058 10.072,5.628 15.376,7.639 l 5.551,1.878 c 6.268,1.882 12.532,2.958 18.698,3.224 l 7.538,-0.085 c 1.097,-0.072 2.16,-0.167 3.194,-0.284 -1.407,13.024 -0.433,27.328 2.908,42.571 l 2.583,11.79 10.757,-5.476 c 5.029,-2.558 9.798,-5.591 14.176,-9.009 l 4.764,-4.016 c 4.847,-4.409 8.994,-9.214 12.388,-14.342 l 3.843,-6.555 c 2.807,-5.478 4.735,-11.005 5.793,-16.549 0.39,-2.045 0.664,-4.086 0.818,-6.113 0.812,3.96 1.757,7.952 2.838,11.967 l 3.142,11.658 10.484,-5.98 c 6.443,-3.676 12.487,-7.986 17.963,-12.811 l 4.669,-4.381 c 6.176,-6.167 11.329,-12.87 15.364,-19.972 l 3.439,-6.721 c 3.137,-6.889 5.196,-13.817 6.166,-20.688 0.08,-0.55 0.149,-1.105 0.213,-1.66 l 1.752,3.298 8.888,-8.175 c 5.487,-5.045 10.437,-10.623 14.712,-16.58 l 3.459,-5.141 c 4.626,-7.338 8.149,-14.983 10.516,-22.777 l 1.911,-7.525 c 1.522,-7.396 1.982,-14.605 1.398,-21.53 -0.765,-9.052 -3.248,-17.508 -7.282,-25.086 2.801,2.901 5.735,5.758 8.793,8.56 l 8.906,8.156 5.642,-10.675 c 3.485,-6.592 6.288,-13.508 8.326,-20.558 l 1.598,-6.291 c 1.864,-8.398 2.605,-16.704 2.222,-24.762 l -0.709,-7.653 c -1.044,-7.474 -3.02,-14.422 -5.89,-20.759 -2.152,-4.758 -4.795,-9.165 -7.893,-13.177 l 6.034,1.961 0.702,-12.057 c 0.431,-7.323 0.127,-14.643 -0.895,-21.758 l -1.204,-6.781 c -1.736,-8.163 -4.395,-15.805 -7.915,-22.793 l -4.271,-7.515 c -3.928,-6.181 -8.617,-11.697 -13.852,-16.27 -2.408,-2.1 -4.94,-4.015 -7.573,-5.727 l 3.82,-0.271 -3.868,-11.44 c -2.381,-7.033 -5.447,-13.778 -9.117,-20.05 l -3.483,-5.539 c -4.818,-7.148 -10.336,-13.412 -16.443,-18.677 l -6.054,-4.769 c -6.16,-4.406 -12.579,-7.763 -19.168,-10.042 -3.26,-1.129 -6.582,-1.996 -9.943,-2.6 l 5.191,-2.112 -7.231,-9.673 c -4.384,-5.866 -9.322,-11.261 -14.674,-16.032 l -5.12,-4.279 c -6.719,-5.256 -13.833,-9.48 -21.206,-12.601 l -7.61,-2.807 c -7.217,-2.272 -14.35,-3.465 -21.313,-3.589 l -1.19,-0.013 c -16.979,0 -32.831,6.426 -44.811,18.122 -3.543,-0.692 -8.418,-1.945 -14.098,-4.209 10.35,-8.253 18.465,-17.915 24.158,-28.764 l 3.68,-7.01 z"
           style="fill:#000000;fill-opacity:1;fill-rule:nonzero;stroke:none"
           id="path104007"
           inkscape:connector-curvature="0" /><path
           d="m 449.537,167.868 c 0.129,0.48 0.284,0.945 0.389,1.442 1.309,6.199 1.625,12.654 1.077,19.173 -10e-4,0.097 0.011,0.188 0.011,0.288 l -0.036,-0.003 c -0.827,9.409 -3.496,18.967 -7.849,28.143 -0.009,0.033 -0.014,0.065 -0.025,0.091 l -0.014,-0.001 c -3.544,7.447 -8.176,14.639 -13.819,21.294 -35.774,-50.976 -32.799,-96.482 -9.871,-108.205 14.598,-9.534 31.709,-11.673 48.265,-5.942 5.989,2.075 11.687,5.128 16.992,8.957 0.086,0.053 0.166,0.091 0.247,0.143 l -0.018,0.028 c 7.642,5.556 14.453,12.766 20.077,21.232 0.023,0.023 0.041,0.044 0.064,0.065 l -0.012,0.016 c 4.555,6.872 8.334,14.55 11.127,22.811 -27.686,1.958 -50.242,-2.132 -66.605,-9.532"
           style="fill:#8cc63f;fill-opacity:1;fill-rule:nonzero;stroke:none"
           id="path104009"
           inkscape:connector-curvature="0" /><path
           d="m 557.023,342.039 v 0.095 h -0.02 c -1.857,8.036 -4.826,16.06 -8.9,23.769 -20.468,-18.744 -33.019,-37.929 -38.906,-54.897 -0.259,0.423 -0.489,0.858 -0.777,1.273 -3.596,5.215 -8.063,9.886 -13.176,13.977 -0.069,0.068 -0.132,0.138 -0.201,0.205 l -0.019,-0.028 c -7.401,5.875 -16.171,10.512 -25.831,13.663 -0.028,0.018 -0.053,0.035 -0.078,0.048 l -0.011,-0.013 c -7.843,2.548 -16.252,4.139 -24.96,4.621 12.382,-61.034 47.454,-90.177 71.74,-81.606 16.96,4.036 30.286,14.984 37.515,30.945 2.616,5.769 4.317,12.003 5.187,18.491 0.026,0.096 0.052,0.182 0.072,0.277 l -0.034,0.006 c 1.224,9.371 0.675,19.275 -1.601,29.174"
           style="fill:#8cc63f;fill-opacity:1;fill-rule:nonzero;stroke:none"
           id="path104011"
           inkscape:connector-curvature="0" /><path
           d="m 551.428,266.424 c -26.401,-8.57 -45.776,-20.822 -58.166,-33.821 -0.063,0.494 -0.093,0.985 -0.181,1.48 -1.112,6.238 -3.238,12.343 -6.194,18.181 -0.036,0.091 -0.062,0.178 -0.1,0.271 l -0.029,-0.014 c -4.296,8.411 -10.356,16.268 -17.835,23.141 -0.02,0.028 -0.035,0.055 -0.057,0.076 l -0.011,-0.006 c -6.079,5.573 -13.071,10.504 -20.795,14.556 -14.043,-60.672 5.785,-101.737 31.434,-104.009 17.107,-3.362 33.776,1.075 46.973,12.6 4.774,4.167 8.908,9.134 12.389,14.675 0.06,0.079 0.124,0.146 0.179,0.225 l -0.029,0.013 c 4.998,8.023 8.607,17.261 10.643,27.215 0.013,0.033 0.026,0.058 0.041,0.089 l -0.02,0.007 c 1.644,8.081 2.266,16.616 1.758,25.321"
           style="fill:#8cc63f;fill-opacity:1;fill-rule:nonzero;stroke:none"
           id="path104013"
           inkscape:connector-curvature="0" /><path
           d="m 482.521,392.186 c -5.134,3.71 -10.903,6.617 -17.094,8.763 -0.085,0.04 -0.166,0.086 -0.257,0.125 l -0.01,-0.033 c -8.939,3.063 -18.754,4.498 -28.911,4.237 -0.033,0.005 -0.061,0.012 -0.092,0.014 l -0.003,-0.014 c -8.244,-0.219 -16.696,-1.534 -25.068,-3.995 32.088,-53.376 74.887,-69.104 94.904,-52.902 14.633,9.476 23.529,24.25 25.006,41.711 0.533,6.312 0.052,12.756 -1.301,19.161 -0.011,0.096 -0.011,0.19 -0.025,0.286 l -0.033,-0.008 c -1.982,9.24 -5.81,18.39 -11.269,26.96 -0.01,0.03 -0.02,0.059 -0.033,0.089 l -0.018,-0.006 c -4.434,6.951 -9.92,13.518 -16.339,19.421 -13.016,-24.513 -18.424,-46.791 -18.297,-64.749 -0.387,0.312 -0.75,0.644 -1.16,0.94"
           style="fill:#8cc63f;fill-opacity:1;fill-rule:nonzero;stroke:none"
           id="path104015"
           inkscape:connector-curvature="0" /><path
           d="m 440.488,459.326 c -5.835,2.472 -12.111,4.018 -18.618,4.73 -0.097,0.02 -0.182,0.046 -0.281,0.065 l -10e-4,-0.037 c -9.4,0.992 -19.285,0.203 -29.128,-2.316 -0.035,-10e-4 -0.064,-10e-4 -0.095,-0.005 v -0.018 c -7.987,-2.052 -15.934,-5.22 -23.545,-9.483 43.183,-44.876 88.412,-50.663 104.312,-30.406 12.152,12.504 17.528,28.89 15.071,46.239 -0.886,6.272 -2.795,12.446 -5.539,18.388 -0.03,0.094 -0.054,0.183 -0.089,0.273 l -0.032,-0.013 c -3.989,8.565 -9.767,16.631 -16.995,23.766 -0.018,0.027 -0.033,0.053 -0.055,0.079 l -0.014,-0.008 c -5.876,5.786 -12.682,10.965 -20.26,15.287 -7.222,-26.8 -7.525,-49.721 -3.395,-67.199 -0.446,0.218 -0.872,0.461 -1.336,0.658"
           style="fill:#8cc63f;fill-opacity:1;fill-rule:nonzero;stroke:none"
           id="path104017"
           inkscape:connector-curvature="0" /><path
           d="m 413.252,483.696 c 9.107,10.305 12.727,23.417 10.143,36.995 -0.937,4.907 -2.668,9.701 -5.052,14.279 -0.031,0.072 -0.051,0.143 -0.082,0.212 l -0.024,-0.012 c -3.466,6.598 -8.32,12.738 -14.283,18.09 -0.012,0.021 -0.027,0.038 -0.044,0.059 l -0.011,-0.007 c -4.846,4.339 -10.405,8.165 -16.538,11.289 -4.685,-21.39 -4.064,-39.461 -0.153,-53.077 -0.362,0.154 -0.707,0.331 -1.081,0.469 -4.689,1.729 -9.692,2.714 -14.847,3.03 -0.074,0.01 -0.144,0.03 -0.22,0.04 l -0.002,-0.028 c -7.44,0.43 -15.202,-0.563 -22.863,-2.918 -0.025,-0.003 -0.049,-0.004 -0.072,-0.007 v -0.013 c -6.217,-1.916 -12.361,-4.708 -18.197,-8.354 35.707,-33.74 71.557,-36.603 83.326,-20.047"
           style="fill:#8cc63f;fill-opacity:1;fill-rule:nonzero;stroke:none"
           id="path104019"
           inkscape:connector-curvature="0" /><path
           d="m 96.004,348.381 c 20.016,-16.202 62.817,-0.473 94.905,52.904 -8.37,2.459 -16.825,3.774 -25.068,3.992 l -0.004,0.016 c -0.03,-0.002 -0.06,-0.008 -0.092,-0.016 -10.157,0.262 -19.972,-1.173 -28.912,-4.236 l -0.011,0.032 c -0.089,-0.038 -0.168,-0.085 -0.258,-0.123 -6.186,-2.145 -11.956,-5.053 -17.091,-8.764 -0.41,-0.294 -0.771,-0.626 -1.159,-0.941 0.127,17.959 -5.28,40.238 -18.297,64.75 -6.42,-5.901 -11.904,-12.47 -16.34,-19.421 l -0.017,0.006 c -0.013,-0.03 -0.022,-0.059 -0.034,-0.089 -5.456,-8.57 -9.286,-17.72 -11.268,-26.961 l -0.032,0.009 C 72.311,409.442 72.31,409.35 72.299,409.252 70.948,402.848 70.466,396.403 71,390.092 72.476,372.63 81.368,357.856 96.004,348.381"
           style="fill:#8cc63f;fill-opacity:1;fill-rule:nonzero;stroke:none"
           id="path104021"
           inkscape:connector-curvature="0" /><path
           d="m 86.113,263.146 c 24.282,-8.571 59.354,20.572 71.737,81.605 -8.71,-0.48 -17.118,-2.071 -24.959,-4.621 l -0.01,0.013 c -0.027,-0.013 -0.052,-0.03 -0.083,-0.045 -9.655,-3.155 -18.427,-7.791 -25.826,-13.665 l -0.022,0.027 c -0.071,-0.066 -0.13,-0.137 -0.2,-0.202 -5.113,-4.093 -9.578,-8.764 -13.177,-13.979 -0.286,-0.416 -0.515,-0.849 -0.776,-1.272 -5.887,16.966 -18.436,36.151 -38.905,54.898 -4.075,-7.711 -7.043,-15.735 -8.901,-23.771 h -0.017 c -0.004,-0.032 0,-0.061 -0.004,-0.095 -2.274,-9.899 -2.819,-19.804 -1.598,-29.174 l -0.034,-0.005 c 0.018,-0.096 0.049,-0.183 0.07,-0.277 0.87,-6.489 2.572,-12.724 5.186,-18.492 7.233,-15.961 20.556,-26.909 37.519,-30.945"
           style="fill:#8cc63f;fill-opacity:1;fill-rule:nonzero;stroke:none"
           id="path104023"
           inkscape:connector-curvature="0" /><path
           d="m 122.501,186.279 c 25.649,2.272 45.477,43.337 31.434,104.009 -7.727,-4.052 -14.716,-8.983 -20.796,-14.555 l -0.013,0.005 c -0.021,-0.021 -0.033,-0.048 -0.057,-0.076 -7.478,-6.873 -13.536,-14.73 -17.832,-23.141 l -0.032,0.014 c -0.037,-0.093 -0.062,-0.18 -0.098,-0.271 -2.956,-5.838 -5.084,-11.943 -6.193,-18.181 -0.088,-0.495 -0.117,-0.986 -0.179,-1.48 -12.394,12.999 -31.767,25.251 -58.168,33.821 -0.51,-8.705 0.115,-17.24 1.759,-25.321 l -0.019,-0.007 c 0.013,-0.031 0.025,-0.056 0.039,-0.089 2.035,-9.954 5.643,-19.192 10.642,-27.214 l -0.027,-0.014 c 0.056,-0.079 0.119,-0.146 0.179,-0.225 3.483,-5.541 7.615,-10.508 12.389,-14.674 13.197,-11.526 29.864,-15.963 46.972,-12.601"
           style="fill:#8cc63f;fill-opacity:1;fill-rule:nonzero;stroke:none"
           id="path104025"
           inkscape:connector-curvature="0" /><path
           d="m 233.173,452.262 c -7.608,4.263 -15.558,7.432 -23.544,9.483 v 0.018 c -0.032,0.003 -0.061,0.003 -0.094,0.005 -9.841,2.518 -19.731,3.309 -29.128,2.317 l -0.003,0.035 c -0.096,-0.019 -0.184,-0.045 -0.279,-0.064 -6.509,-0.712 -12.783,-2.258 -18.617,-4.731 -0.466,-0.197 -0.892,-0.441 -1.339,-0.658 4.13,17.479 3.827,40.401 -3.394,67.201 -7.576,-4.323 -14.385,-9.502 -20.26,-15.289 l -0.016,0.009 c -0.02,-0.027 -0.034,-0.051 -0.054,-0.08 -7.228,-7.134 -13.004,-15.201 -16.995,-23.766 l -0.032,0.014 c -0.034,-0.09 -0.056,-0.18 -0.088,-0.273 -2.745,-5.943 -4.653,-12.117 -5.538,-18.387 -2.459,-17.35 2.916,-33.737 15.069,-46.239 15.9,-20.257 61.129,-14.472 104.312,30.405"
           style="fill:#8cc63f;fill-opacity:1;fill-rule:nonzero;stroke:none"
           id="path104027"
           inkscape:connector-curvature="0" /><path
           d="m 272.067,503.743 c -5.835,3.646 -11.978,6.438 -18.195,8.354 l 0.002,0.013 c -0.026,0.004 -0.049,0.005 -0.075,0.007 -7.659,2.355 -15.421,3.35 -22.861,2.917 l -0.003,0.029 c -0.078,-0.01 -0.146,-0.03 -0.222,-0.04 -5.155,-0.317 -10.156,-1.301 -14.845,-3.03 -0.375,-0.138 -0.72,-0.315 -1.081,-0.47 3.91,13.617 4.531,31.688 -0.156,53.078 -6.131,-3.123 -11.691,-6.95 -16.535,-11.289 l -0.013,0.007 c -0.016,-0.019 -0.029,-0.038 -0.044,-0.059 -5.962,-5.352 -10.815,-11.492 -14.282,-18.09 l -0.024,0.012 c -0.03,-0.069 -0.051,-0.14 -0.08,-0.213 -2.386,-4.577 -4.118,-9.371 -5.054,-14.279 -2.584,-13.577 1.035,-26.689 10.143,-36.994 11.767,-16.556 47.621,-13.693 83.325,20.047"
           style="fill:#8cc63f;fill-opacity:1;fill-rule:nonzero;stroke:none"
           id="path104029"
           inkscape:connector-curvature="0" /><path
           d="m 182.593,130.09 c 22.927,11.724 25.904,57.229 -9.872,108.205 -5.639,-6.655 -10.272,-13.847 -13.817,-21.294 l -0.014,0.001 c -0.013,-0.026 -0.014,-0.058 -0.026,-0.091 -4.353,-9.176 -7.021,-18.734 -7.848,-28.143 l -0.036,0.003 c 0,-0.1 0.013,-0.191 0.01,-0.288 -0.548,-6.519 -0.232,-12.974 1.078,-19.173 0.106,-0.497 0.263,-0.962 0.39,-1.442 -16.362,7.4 -38.918,11.49 -66.606,9.532 2.793,-8.261 6.573,-15.939 11.129,-22.811 l -0.015,-0.016 c 0.023,-0.021 0.044,-0.042 0.068,-0.065 5.62,-8.466 12.432,-15.676 20.073,-21.232 l -0.02,-0.028 c 0.081,-0.052 0.165,-0.09 0.249,-0.143 5.307,-3.829 11.003,-6.882 16.991,-8.957 16.557,-5.731 33.669,-3.592 48.266,5.942"
           style="fill:#8cc63f;fill-opacity:1;fill-rule:nonzero;stroke:none"
           id="path104031"
           inkscape:connector-curvature="0" /><path
           d="m 384.986,118.153 c 0.271,0.419 0.567,0.813 0.818,1.25 3.168,5.488 5.476,11.525 6.977,17.893 0.03,0.093 0.07,0.177 0.101,0.269 l -0.033,0.008 c 2.136,9.2 2.565,19.116 1.278,29.19 -0.003,0.037 0.006,0.065 0.005,0.095 l -0.015,0.003 c -1.06,8.178 -3.226,16.453 -6.521,24.531 -47.417,-35.53 -59.928,-77.229 -45.403,-96.926 -6.422,-0.996 -23.399,-4.228 -41.196,-12.706 -17.796,8.478 -34.773,11.71 -41.194,12.706 14.522,19.697 2.01,61.396 -45.402,96.926 -3.296,-8.078 -5.466,-16.353 -6.524,-24.531 l -0.013,-0.003 c -0.003,-0.03 0.006,-0.058 0.005,-0.095 -1.288,-10.074 -0.859,-19.99 1.277,-29.19 l -0.033,-0.008 c 0.03,-0.092 0.07,-0.176 0.099,-0.269 1.502,-6.368 3.81,-12.405 6.979,-17.893 0.253,-0.437 0.547,-0.831 0.817,-1.25 -17.851,1.955 -40.564,-1.16 -66.273,-11.619 5.22,-6.985 11.197,-13.111 17.661,-18.23 l -0.009,-0.017 c 0.03,-0.016 0.055,-0.026 0.086,-0.043 7.971,-6.3 16.684,-11.038 25.674,-13.95 l -0.01,-0.029 c 0.092,-0.026 0.183,-0.035 0.279,-0.058 6.236,-1.996 12.596,-3.128 18.934,-3.239 16.678,-0.292 31.611,6.365 42.426,18.738 4.998,-0.506 19.531,-2.982 35.797,-12.932 -13.28,-7.793 -26.043,-18.806 -34.187,-34.33 l 13.055,-9.85 c 8.853,17.168 19.752,29.193 30.556,37.638 10.805,-8.445 21.706,-20.47 30.558,-37.638 l 13.053,9.85 c -8.144,15.524 -20.905,26.537 -34.187,34.33 16.267,9.95 30.802,12.426 35.8,12.932 10.811,-12.373 25.747,-19.03 42.423,-18.738 6.336,0.111 12.7,1.243 18.933,3.239 0.099,0.023 0.188,0.032 0.281,0.058 l -0.011,0.029 c 8.992,2.912 17.704,7.65 25.675,13.95 0.03,0.017 0.058,0.027 0.087,0.043 l -0.01,0.017 c 6.465,5.119 12.441,11.245 17.663,18.23 -25.713,10.459 -48.423,13.574 -66.276,11.619"
           style="fill:#8cc63f;fill-opacity:1;fill-rule:nonzero;stroke:none"
           id="path104033"
           inkscape:connector-curvature="0" /><path
           d="m 116.199,467.754 c 0.431,3.038 1.104,6.062 1.973,9.06 0.756,-7.031 4.539,-13.918 8.157,-20.571 5.612,-10.328 10.9,-20.108 5.797,-30.28 -0.537,-0.786 -1.105,-1.551 -1.71,-2.294 -11.501,11.933 -16.553,27.577 -14.217,44.085 m 5.171,17.834 c 2.78,6.33 6.507,12.423 11.104,18.059 -4.555,-10.597 -1.709,-20.607 1.525,-31.27 3.284,-10.822 6.653,-21.99 2.411,-34.755 -0.886,6.749 -4.441,13.33 -7.945,19.782 -5.219,9.601 -10.535,18.844 -7.095,28.184 m 16.52,24.099 c 4.83,4.886 10.376,9.295 16.526,13.091 -13.923,-19.693 -11.506,-46.065 -13.75,-68.593 -0.603,6.572 -2.485,12.787 -4.338,18.897 -3.91,12.878 -7.491,24.344 1.562,36.605 m 24.569,-52.603 c 2.826,1.199 5.765,2.178 8.782,2.979 -5.636,-4.271 -9.586,-11.061 -13.426,-17.59 -5.958,-10.132 -11.615,-19.704 -22.964,-20.575 -0.946,0.058 -1.895,0.149 -2.842,0.285 0.029,0.107 0.064,0.208 0.093,0.315 12.096,3.094 22.262,14.833 27.313,33.185 0.996,0.491 2.007,0.962 3.044,1.401 m 17.948,4.76 c 6.86,0.882 14,0.826 21.201,-0.207 -11.428,-1.559 -18.544,-9.159 -26.013,-17.422 -7.584,-8.391 -15.416,-17.036 -28.543,-19.98 5.329,4.238 9.138,10.676 12.858,17.006 5.539,9.419 10.721,18.739 20.497,20.603 m 29.166,-1.737 c 6.677,-1.618 13.313,-4.101 19.738,-7.414 -24.055,1.781 -45.408,-13.881 -65.869,-23.568 5.319,3.904 9.676,8.72 13.957,13.457 9.024,9.987 17.002,18.965 32.174,17.525 m 23.6,-7.845 c -7.609,4.263 -15.557,7.432 -23.544,9.483 v 0.018 c -0.031,0.003 -0.061,0.003 -0.094,0.005 -9.842,2.518 -19.731,3.308 -29.128,2.317 l -0.003,0.035 c -0.096,-0.017 -0.184,-0.045 -0.279,-0.065 -6.509,-0.712 -12.782,-2.257 -18.618,-4.73 -0.465,-0.197 -0.89,-0.44 -1.338,-0.658 4.131,17.479 3.828,40.401 -3.393,67.201 -7.576,-4.323 -14.385,-9.502 -20.261,-15.289 l -0.016,0.009 c -0.019,-0.027 -0.035,-0.051 -0.055,-0.08 -7.228,-7.135 -13.001,-15.201 -16.994,-23.766 l -0.032,0.014 c -0.034,-0.089 -0.057,-0.18 -0.088,-0.273 -2.746,-5.943 -4.652,-12.116 -5.539,-18.388 -2.456,-17.349 2.917,-33.736 15.069,-46.238 15.9,-20.258 61.13,-14.472 104.313,30.405"
           style="fill:#000000;fill-opacity:1;fill-rule:nonzero;stroke:none"
           id="path104035"
           inkscape:connector-curvature="0" /><path
           d="m 180.484,520.331 c 0.452,2.378 1.098,4.734 1.895,7.064 0.331,-5.565 3.055,-11.135 5.655,-16.512 4.034,-8.348 7.835,-16.252 3.432,-24.074 -0.452,-0.6 -0.929,-1.181 -1.431,-1.743 -8.617,9.831 -12.009,22.344 -9.551,35.265 m 4.743,13.858 c 2.426,4.884 5.591,9.543 9.424,13.814 -3.984,-8.18 -2.117,-16.174 0.029,-24.697 2.183,-8.649 4.419,-17.575 0.6,-27.474 -0.446,5.353 -2.999,10.671 -5.518,15.885 -3.755,7.762 -7.595,15.241 -4.535,22.472 m 13.919,18.37 c 3.988,3.669 8.521,6.932 13.512,9.694 -11.709,-14.996 -10.793,-35.862 -13.404,-53.529 -0.23,5.203 -1.479,10.167 -2.712,15.052 -2.597,10.293 -4.99,19.46 2.604,28.783 m 17.387,-42.365 c 2.269,0.835 4.622,1.497 7.03,2.017 -4.602,-3.155 -7.967,-8.357 -11.237,-13.358 -5.074,-7.759 -9.891,-15.089 -18.862,-15.348 -0.744,0.079 -1.49,0.187 -2.232,0.329 0.028,0.084 0.067,0.163 0.096,0.247 9.621,1.983 18.054,10.822 22.727,25.042 0.824,0.362 1.623,0.753 2.478,1.071 m 14.319,3.076 c 5.436,0.438 11.06,0.126 16.697,-0.958 -9.064,-0.8 -14.954,-6.521 -21.149,-12.754 -6.29,-6.325 -12.785,-12.843 -23.237,-14.671 4.358,3.138 7.601,8.07 10.768,12.917 4.717,7.215 9.149,14.364 16.921,15.466 m 22.915,-2.462 c 5.199,-1.526 10.335,-3.73 15.272,-6.583 -18.886,2.306 -36.295,-9.233 -52.779,-16.099 4.337,2.877 7.952,6.508 11.501,10.079 7.483,7.53 14.106,14.305 26.006,12.603 m 18.3,-7.065 c -5.836,3.646 -11.978,6.438 -18.194,8.354 l 0.001,0.013 c -0.026,0.004 -0.05,0.005 -0.076,0.008 -7.659,2.354 -15.42,3.349 -22.86,2.916 l -0.004,0.029 c -0.075,-0.01 -0.146,-0.03 -0.222,-0.04 -5.154,-0.317 -10.156,-1.302 -14.843,-3.031 -0.376,-0.138 -0.722,-0.313 -1.082,-0.469 3.91,13.617 4.53,31.688 -0.156,53.076 -6.131,-3.121 -11.69,-6.949 -16.535,-11.288 l -0.013,0.008 c -0.016,-0.019 -0.028,-0.038 -0.045,-0.059 -5.962,-5.352 -10.815,-11.49 -14.282,-18.091 l -0.024,0.014 c -0.03,-0.071 -0.051,-0.141 -0.08,-0.214 -2.385,-4.578 -4.118,-9.371 -5.054,-14.279 -2.584,-13.577 1.036,-26.689 10.144,-36.994 11.767,-16.556 47.62,-13.692 83.325,20.047"
           style="fill:#000000;fill-opacity:1;fill-rule:nonzero;stroke:none"
           id="path104037"
           inkscape:connector-curvature="0" /><path
           d="m 73.328,399.57 c 2.304,-6.687 7.528,-12.555 12.537,-18.236 7.776,-8.815 15.112,-17.171 12.406,-28.224 -0.349,-0.885 -0.73,-1.757 -1.156,-2.617 -13.872,9.067 -22.286,23.19 -23.691,39.803 -0.258,3.059 -0.275,6.156 -0.096,9.274 m 1.16,9.264 c 1.298,6.792 3.572,13.561 6.795,20.082 -2.075,-11.347 2.931,-20.471 8.462,-30.142 5.615,-9.819 11.391,-19.954 10.104,-33.343 -2.37,6.382 -7.305,12.005 -12.16,17.511 -7.228,8.195 -14.471,16.02 -13.201,25.892 m 10.729,27.177 c 3.617,5.842 8.04,11.375 13.19,16.448 -9.181,-22.305 -0.942,-47.473 1.895,-69.933 -2.053,6.273 -5.276,11.911 -8.444,17.454 -6.683,11.684 -12.733,22.061 -6.641,36.031 m 35.682,-45.798 c 2.487,1.798 5.134,3.408 7.895,4.863 -4.54,-5.42 -6.877,-12.922 -9.165,-20.14 -3.546,-11.207 -6.927,-21.8 -17.796,-25.178 -0.934,-0.157 -1.879,-0.28 -2.834,-0.358 0.004,0.11 0.018,0.217 0.022,0.329 11.098,5.713 18.393,19.422 19.224,38.439 0.859,0.702 1.74,1.386 2.654,2.045 m 16.435,8.642 c 6.489,2.39 13.462,3.928 20.713,4.529 -10.794,-4.071 -16.033,-13.066 -21.472,-22.787 -5.52,-9.871 -11.229,-20.043 -23.369,-25.841 4.249,5.319 6.526,12.445 8.743,19.444 3.298,10.417 6.269,20.657 15.385,24.655 m 28.819,4.813 c 6.869,-0.089 13.891,-1.029 20.893,-2.825 -23.846,-3.63 -41.169,-23.658 -58.953,-37.666 4.315,4.993 7.488,10.659 10.605,16.233 6.568,11.745 12.344,22.278 27.455,24.258 M 96.005,348.381 c 20.016,-16.202 62.816,-0.474 94.904,52.903 -8.368,2.46 -16.825,3.775 -25.069,3.993 l -0.003,0.016 c -0.031,-0.003 -0.06,-0.009 -0.093,-0.016 -10.156,0.261 -19.971,-1.173 -28.911,-4.236 l -0.01,0.034 c -0.09,-0.041 -0.171,-0.087 -0.258,-0.126 -6.187,-2.145 -11.957,-5.052 -17.093,-8.764 -0.41,-0.295 -0.771,-0.627 -1.159,-0.938 0.129,17.958 -5.279,40.235 -18.295,64.748 -6.423,-5.901 -11.905,-12.47 -16.342,-19.421 l -0.017,0.005 c -0.012,-0.027 -0.023,-0.058 -0.034,-0.087 -5.457,-8.57 -9.284,-17.721 -11.266,-26.96 l -0.035,0.006 c -0.013,-0.096 -0.014,-0.188 -0.025,-0.285 -1.351,-6.406 -1.833,-12.849 -1.299,-19.16 1.476,-17.462 10.369,-32.236 25.005,-41.712"
           style="fill:#000000;fill-opacity:1;fill-rule:nonzero;stroke:none"
           id="path104039"
           inkscape:connector-curvature="0" /><path
           d="m 47.618,303.801 c 4.409,-5.53 11.294,-9.313 17.914,-12.989 10.279,-5.708 19.987,-11.127 21.135,-22.451 -0.033,-0.948 -0.102,-1.9 -0.215,-2.85 -16.105,3.903 -28.76,14.398 -35.641,29.584 -1.268,2.796 -2.32,5.708 -3.193,8.706 m -2.322,30.317 c 1.84,-11.387 9.61,-18.311 18.058,-25.576 8.576,-7.374 17.409,-14.993 20.677,-28.042 -4.368,5.223 -10.9,8.871 -17.318,12.437 -9.553,5.302 -18.997,10.253 -21.1,19.984 -1.05,6.832 -1.171,13.974 -0.317,21.197 m 1.333,8.003 c 1.456,6.715 3.774,13.408 6.929,19.913 -1.191,-24.094 14.994,-45.054 25.18,-65.271 -4.033,5.224 -8.957,9.461 -13.796,13.623 -10.207,8.774 -19.378,16.528 -18.313,31.735 m 48.946,-31.222 c 1.745,2.526 3.699,4.927 5.818,7.224 -2.466,-6.631 -2.16,-14.478 -1.901,-22.047 0.407,-11.747 0.766,-22.862 -8.347,-29.68 -0.828,-0.459 -1.68,-0.89 -2.553,-1.286 -0.032,0.104 -0.056,0.209 -0.088,0.315 8.55,9.098 10.835,24.46 5.257,42.66 0.574,0.949 1.175,1.889 1.814,2.814 m 12.601,13.641 c 5.314,4.423 11.372,8.206 18.004,11.195 -8.809,-7.443 -10.741,-17.674 -12.612,-28.656 -1.901,-11.149 -3.877,-22.646 -13.376,-32.168 2.225,6.434 1.986,13.909 1.733,21.247 -0.378,10.921 -1.003,21.566 6.251,28.382 m 25.548,14.177 c 6.503,2.214 13.433,3.677 20.634,4.326 -21.258,-11.396 -30.882,-36.067 -42.958,-55.216 2.397,6.148 3.491,12.548 4.566,18.845 2.26,13.266 4.178,25.122 17.758,32.045 M 86.112,263.146 c 24.283,-8.572 59.355,20.572 71.737,81.605 -8.709,-0.48 -17.117,-2.071 -24.958,-4.622 l -0.01,0.014 c -0.026,-0.014 -0.052,-0.029 -0.081,-0.046 -9.656,-3.154 -18.43,-7.789 -25.827,-13.664 l -0.023,0.026 c -0.072,-0.065 -0.131,-0.135 -0.199,-0.202 -5.114,-4.092 -9.579,-8.763 -13.177,-13.977 -0.288,-0.417 -0.517,-0.85 -0.779,-1.273 -5.884,16.967 -18.434,36.151 -38.902,54.897 -4.076,-7.711 -7.045,-15.734 -8.902,-23.77 h -0.018 c -10e-4,-0.033 0,-0.062 -0.003,-0.095 -2.274,-9.899 -2.82,-19.805 -1.599,-29.174 l -0.033,-0.006 c 0.019,-0.095 0.048,-0.183 0.069,-0.276 0.871,-6.49 2.573,-12.723 5.187,-18.492 7.233,-15.961 20.556,-26.909 37.518,-30.945"
           style="fill:#000000;fill-opacity:1;fill-rule:nonzero;stroke:none"
           id="path104041"
           inkscape:connector-curvature="0" /><path
           d="m 77.127,200.713 c -2.311,2.017 -4.477,4.232 -6.515,6.594 6.305,-3.202 14.138,-3.786 21.688,-4.386 11.721,-0.932 22.801,-1.837 28.542,-11.668 0.361,-0.873 0.696,-1.768 0.987,-2.684 -16.274,-3.121 -32.142,1.177 -44.702,12.144 m -12.121,14.064 c -3.79,5.784 -6.861,12.232 -9.079,19.156 6.398,-9.598 16.34,-12.67 27.038,-15.784 10.862,-3.153 22.059,-6.425 30.446,-16.939 -6.142,2.937 -13.599,3.552 -20.915,4.131 -10.895,0.868 -21.541,1.457 -27.49,9.436 m -13.137,47.986 c 8.907,-22.417 32.325,-34.779 49.979,-48.95 -5.835,3.081 -12.073,4.895 -18.204,6.675 -12.925,3.751 -24.487,7.002 -29.823,21.284 -1.459,6.711 -2.126,13.764 -1.952,20.991 m 59.439,-29.104 c 0.54,3.021 1.32,6.018 2.297,8.983 0.504,-7.057 4.04,-14.066 7.414,-20.851 5.242,-10.518 10.176,-20.482 4.715,-30.467 -0.567,-0.76 -1.161,-1.506 -1.791,-2.225 -0.073,0.081 -0.139,0.165 -0.212,0.248 4.006,11.825 -0.285,26.751 -12.908,40.998 0.13,1.102 0.288,2.206 0.485,3.314 m 5.807,17.636 c 3.004,6.232 6.947,12.183 11.742,17.656 -4.93,-10.427 -2.445,-20.54 0.408,-31.305 2.891,-10.938 5.861,-22.219 1.167,-34.821 -0.643,6.776 -3.96,13.48 -7.233,20.058 -4.873,9.777 -9.855,19.201 -6.084,28.412 m 17.37,23.496 c 4.999,4.711 10.701,8.916 16.981,12.494 -14.617,-19.186 -13.144,-45.627 -16.19,-68.056 -0.37,6.586 -2.025,12.862 -3.662,19.041 -3.443,13.004 -6.614,24.593 2.871,36.521 m -11.984,-88.512 c 25.65,2.272 45.478,43.337 31.433,104.009 -7.725,-4.052 -14.715,-8.983 -20.795,-14.555 l -0.013,0.005 c -0.02,-0.021 -0.035,-0.048 -0.057,-0.076 -7.478,-6.873 -13.537,-14.73 -17.833,-23.139 l -0.03,0.012 c -0.039,-0.093 -0.062,-0.18 -0.1,-0.271 -2.955,-5.838 -5.083,-11.943 -6.192,-18.181 -0.089,-0.495 -0.119,-0.986 -0.18,-1.48 -12.392,12.999 -31.767,25.251 -58.166,33.821 -0.51,-8.705 0.115,-17.24 1.758,-25.321 l -0.019,-0.007 c 0.012,-0.031 0.026,-0.056 0.037,-0.089 2.037,-9.956 5.646,-19.192 10.645,-27.214 l -0.028,-0.014 c 0.056,-0.079 0.119,-0.146 0.177,-0.225 3.484,-5.541 7.618,-10.508 12.391,-14.675 13.197,-11.525 29.864,-15.962 46.972,-12.6"
           style="fill:#000000;fill-opacity:1;fill-rule:nonzero;stroke:none"
           id="path104043"
           inkscape:connector-curvature="0" /><path
           d="m 135.122,126.451 c -2.902,1.002 -5.74,2.241 -8.514,3.67 7.045,-0.604 14.525,1.79 21.75,4.066 11.215,3.532 21.823,6.85 30.833,-0.109 0.663,-0.675 1.309,-1.381 1.921,-2.116 -13.914,-9.002 -30.235,-10.968 -45.99,-5.511 m -32.116,22.839 c 9.531,-6.492 19.9,-5.613 30.986,-4.484 11.252,1.149 22.86,2.315 34.575,-4.286 -6.795,0.419 -13.936,-1.808 -20.938,-4.017 -10.424,-3.278 -20.51,-6.727 -29.02,-1.561 -5.682,3.938 -10.947,8.761 -15.603,14.348 m -4.891,6.478 c -3.872,5.675 -7.134,11.964 -9.684,18.728 16.666,-17.441 43.011,-20.114 64.691,-26.629 -6.564,0.666 -13.028,0.008 -19.376,-0.64 -13.39,-1.373 -25.329,-2.694 -35.631,8.541 m 56.333,14.043 c -0.633,3.005 -1.033,6.073 -1.24,9.187 3.113,-6.351 9.019,-11.524 14.694,-16.546 8.804,-7.783 17.114,-15.171 15.796,-26.474 -0.239,-0.917 -0.51,-1.833 -0.823,-2.734 -0.099,0.047 -0.191,0.103 -0.29,0.152 -0.724,12.463 -10.299,24.688 -27.342,33.162 -0.295,1.071 -0.562,2.155 -0.795,3.253 m 3.031,39.296 c -0.661,-11.516 5.437,-19.953 12.12,-28.867 6.782,-9.054 13.766,-18.395 14.145,-31.839 -3.14,6.039 -8.73,11.012 -14.23,15.881 -8.184,7.235 -16.338,14.104 -16.298,24.057 0.446,6.898 1.868,13.897 4.263,20.768 m 3.027,7.529 c 2.866,6.241 6.573,12.28 11.054,17.95 -6.353,-23.27 4.928,-47.227 10.519,-69.162 -2.812,5.969 -6.703,11.163 -10.536,16.279 -8.069,10.762 -15.359,20.315 -11.037,34.933 m 22.087,-86.546 c 22.927,11.723 25.905,57.229 -9.87,108.205 -5.642,-6.655 -10.275,-13.847 -13.82,-21.294 l -0.012,0.001 c -0.015,-0.026 -0.015,-0.058 -0.026,-0.091 -4.353,-9.176 -7.023,-18.734 -7.849,-28.143 l -0.034,0.003 c 0,-0.1 0.01,-0.191 0.009,-0.288 -0.55,-6.519 -0.232,-12.974 1.078,-19.174 0.104,-0.496 0.261,-0.961 0.39,-1.441 -16.363,7.4 -38.918,11.488 -66.606,9.532 2.792,-8.261 6.572,-15.939 11.127,-22.811 l -0.014,-0.016 c 0.022,-0.023 0.045,-0.042 0.069,-0.065 5.62,-8.466 12.431,-15.676 20.073,-21.232 l -0.021,-0.028 c 0.081,-0.052 0.165,-0.09 0.248,-0.143 5.31,-3.829 11.003,-6.882 16.993,-8.957 16.555,-5.731 33.669,-3.592 48.265,5.942"
           style="fill:#000000;fill-opacity:1;fill-rule:nonzero;stroke:none"
           id="path104045"
           inkscape:connector-curvature="0" /><path
           d="m 469.892,422.498 c 0.027,-0.107 0.065,-0.208 0.092,-0.314 -0.946,-0.136 -1.896,-0.228 -2.842,-0.286 -11.349,0.871 -17.003,10.443 -22.963,20.575 -3.839,6.528 -7.79,13.319 -13.426,17.59 3.016,-0.802 5.956,-1.781 8.783,-2.978 1.036,-0.44 2.048,-0.909 3.04,-1.4 5.055,-18.354 15.219,-30.092 27.316,-33.187 m -5.79,87.19 c 9.055,-12.264 5.473,-23.727 1.564,-36.606 -1.854,-6.11 -3.735,-12.325 -4.339,-18.897 -2.241,22.529 0.173,48.898 -13.749,68.594 6.151,-3.797 11.697,-8.205 16.524,-13.091 m 16.522,-24.1 c 3.44,-9.34 -1.875,-18.585 -7.095,-28.185 -3.503,-6.451 -7.06,-13.031 -7.947,-19.781 -4.24,12.765 -0.871,23.934 2.413,34.756 3.233,10.661 6.079,20.673 1.526,31.27 4.595,-5.637 8.325,-11.729 11.103,-18.06 m 3.197,-8.774 c 0.867,-2.999 1.545,-6.022 1.975,-9.06 2.334,-16.509 -2.716,-32.154 -14.216,-44.084 -0.606,0.742 -1.174,1.508 -1.712,2.293 -5.102,10.173 0.187,19.952 5.798,30.279 3.615,6.655 7.399,13.541 8.155,20.572 m -57.424,-32.599 c -7.468,8.263 -14.583,15.863 -26.009,17.422 7.202,1.032 14.341,1.088 21.2,0.206 9.777,-1.864 14.955,-11.182 20.494,-20.602 3.722,-6.33 7.53,-12.767 12.861,-17.007 -13.128,2.946 -20.961,11.589 -28.546,19.981 m -53.715,8.478 c 6.428,3.313 13.062,5.796 19.738,7.414 15.175,1.44 23.149,-7.54 32.175,-17.524 4.282,-4.738 8.637,-9.554 13.961,-13.458 -20.462,9.687 -41.818,25.35 -65.874,23.568 m 67.804,6.632 c -5.833,2.473 -12.109,4.019 -18.616,4.731 -0.097,0.019 -0.182,0.045 -0.281,0.064 l -10e-4,-0.035 c -9.4,0.992 -19.285,0.201 -29.128,-2.317 -0.035,-0.002 -0.064,-0.002 -0.095,-0.005 v -0.018 c -7.987,-2.051 -15.934,-5.22 -23.545,-9.483 43.183,-44.876 88.412,-50.662 104.313,-30.404 12.151,12.501 17.527,28.888 15.07,46.238 -0.886,6.27 -2.795,12.444 -5.539,18.388 -0.03,0.092 -0.054,0.182 -0.088,0.273 l -0.033,-0.015 c -3.989,8.565 -9.767,16.632 -16.995,23.767 -0.018,0.029 -0.033,0.053 -0.055,0.08 l -0.014,-0.01 c -5.876,5.787 -12.682,10.966 -20.26,15.289 -7.222,-26.8 -7.525,-49.722 -3.395,-67.2 -0.446,0.217 -0.872,0.46 -1.338,0.657"
           style="fill:#000000;fill-opacity:1;fill-rule:nonzero;stroke:none"
           id="path104047"
           inkscape:connector-curvature="0" /><path
           d="m 332.955,504.226 c 4.939,2.853 10.07,5.056 15.271,6.582 11.902,1.703 18.523,-5.072 26.007,-12.602 3.552,-3.571 7.165,-7.203 11.5,-10.079 -16.481,6.866 -33.891,18.405 -52.778,16.099 m 38.188,9.043 c 7.772,-1.102 12.205,-8.25 16.919,-15.465 3.169,-4.848 6.412,-9.777 10.768,-12.916 -10.453,1.827 -16.947,8.344 -23.237,14.671 -6.193,6.231 -12.083,11.952 -21.148,12.753 5.636,1.084 11.259,1.395 16.698,0.957 m 14.318,-3.076 c 0.854,-0.317 1.656,-0.709 2.477,-1.07 4.676,-14.22 13.107,-23.06 22.732,-25.042 0.026,-0.085 0.067,-0.163 0.092,-0.248 -0.743,-0.141 -1.487,-0.249 -2.232,-0.329 -8.971,0.261 -13.786,7.591 -18.862,15.349 -3.271,5.001 -6.635,10.204 -11.237,13.359 2.409,-0.519 4.758,-1.182 7.03,-2.019 m 17.388,42.366 c 7.591,-9.323 5.201,-18.49 2.602,-28.783 -1.232,-4.885 -2.481,-9.85 -2.712,-15.051 -2.61,17.664 -1.694,38.531 -13.4,53.527 4.986,-2.76 9.522,-6.024 13.51,-9.693 m 13.919,-18.371 c 3.057,-7.23 -0.782,-14.709 -4.534,-22.47 -2.522,-5.214 -5.075,-10.534 -5.519,-15.886 -3.819,9.9 -1.584,18.825 0.599,27.475 2.147,8.521 4.016,16.516 0.028,24.696 3.833,-4.27 6.998,-8.931 9.426,-13.815 m 2.848,-6.792 c 0.795,-2.331 1.441,-4.688 1.892,-7.065 2.462,-12.92 -0.934,-25.434 -9.548,-35.265 -0.503,0.562 -0.978,1.143 -1.433,1.742 -4.4,7.824 -0.601,15.727 3.433,24.075 2.6,5.377 5.323,10.945 5.656,16.513 m -6.364,-43.7 c 9.107,10.306 12.727,23.416 10.143,36.995 -0.937,4.907 -2.668,9.699 -5.052,14.279 -0.031,0.072 -0.051,0.142 -0.082,0.212 l -0.024,-0.013 c -3.466,6.599 -8.32,12.738 -14.283,18.091 -0.012,0.021 -0.028,0.038 -0.044,0.059 l -0.011,-0.007 c -4.846,4.339 -10.406,8.165 -16.537,11.289 -4.687,-21.39 -4.065,-39.461 -0.154,-53.077 -0.362,0.154 -0.707,0.331 -1.081,0.469 -4.689,1.729 -9.691,2.714 -14.847,3.028 -0.074,0.012 -0.144,0.032 -0.22,0.042 l -0.002,-0.028 c -7.44,0.43 -15.202,-0.565 -22.863,-2.918 -0.025,-0.003 -0.049,-0.004 -0.072,-0.008 v -0.012 c -6.217,-1.916 -12.361,-4.71 -18.197,-8.354 35.707,-33.739 71.557,-36.605 83.326,-20.047"
           style="fill:#000000;fill-opacity:1;fill-rule:nonzero;stroke:none"
           id="path104049"
           inkscape:connector-curvature="0" /><path
           d="m 502.974,349.729 c 0.005,-0.11 0.015,-0.219 0.02,-0.329 -0.955,0.079 -1.896,0.201 -2.834,0.358 -10.87,3.377 -14.247,13.971 -17.798,25.177 -2.285,7.219 -4.622,14.72 -9.163,20.141 2.763,-1.453 5.41,-3.066 7.894,-4.862 0.915,-0.658 1.796,-1.344 2.654,-2.047 0.835,-19.017 8.126,-32.726 19.227,-38.438 m 0.615,102.73 c 5.15,-5.073 9.573,-10.607 13.188,-16.447 6.094,-13.971 0.041,-24.348 -6.639,-36.032 -3.172,-5.542 -6.392,-11.182 -8.443,-17.453 2.833,22.46 11.073,47.627 1.894,69.932 m 23.917,-43.624 c 1.27,-9.874 -5.972,-17.699 -13.199,-25.893 -4.857,-5.507 -9.791,-11.128 -12.162,-17.511 -1.286,13.389 4.492,23.525 10.106,33.342 5.528,9.674 10.534,18.797 8.46,30.142 3.225,-6.519 5.497,-13.289 6.795,-20.08 m 1.062,-18.539 c -1.402,-16.611 -9.817,-30.736 -23.689,-39.803 -0.425,0.859 -0.804,1.733 -1.156,2.617 -2.703,11.053 4.63,19.408 12.409,28.224 5.006,5.68 10.231,11.549 12.534,18.235 0.181,-3.117 0.163,-6.215 -0.098,-9.273 m -63.149,-9.7 c -5.438,9.723 -10.679,18.717 -21.472,22.787 7.252,-0.601 14.223,-2.137 20.713,-4.528 9.115,-3.998 12.088,-14.236 15.386,-24.656 2.214,-6.999 4.493,-14.122 8.738,-19.443 -12.137,5.797 -17.843,15.971 -23.365,25.84 m -50.472,20.247 c 7.004,1.796 14.024,2.735 20.894,2.826 15.112,-1.98 20.888,-12.513 27.454,-24.26 3.118,-5.573 6.291,-11.239 10.607,-16.232 -17.787,14.007 -35.107,34.036 -58.955,37.666 m 67.574,-8.657 c -5.134,3.711 -10.903,6.618 -17.094,8.763 -0.085,0.039 -0.166,0.086 -0.257,0.125 l -0.01,-0.033 c -8.939,3.063 -18.754,4.498 -28.911,4.236 -0.033,0.007 -0.061,0.013 -0.092,0.016 l -0.003,-0.016 c -8.244,-0.219 -16.698,-1.534 -25.068,-3.993 32.088,-53.377 74.887,-69.104 94.904,-52.903 14.633,9.476 23.529,24.25 25.006,41.711 0.533,6.312 0.052,12.757 -1.301,19.161 -0.011,0.097 -0.011,0.19 -0.025,0.286 l -0.033,-0.008 c -1.982,9.241 -5.81,18.39 -11.269,26.96 -0.01,0.03 -0.02,0.059 -0.033,0.087 l -0.018,-0.005 c -4.434,6.952 -9.92,13.521 -16.339,19.423 -13.016,-24.514 -18.424,-46.792 -18.297,-64.75 -0.387,0.312 -0.75,0.644 -1.16,0.94"
           style="fill:#000000;fill-opacity:1;fill-rule:nonzero;stroke:none"
           id="path104051"
           inkscape:connector-curvature="0" /><path
           d="m 556.382,312.921 c -2.106,-9.731 -11.549,-14.682 -21.104,-19.984 -6.416,-3.566 -12.945,-7.214 -17.314,-12.437 3.269,13.049 12.1,20.668 20.675,28.042 8.45,7.265 16.217,14.189 18.06,25.576 0.855,-7.222 0.734,-14.364 -0.317,-21.197 m -5.198,-17.826 c -6.883,-15.186 -19.537,-25.681 -35.642,-29.584 -0.113,0.95 -0.181,1.902 -0.214,2.849 1.151,11.325 10.855,16.744 21.135,22.452 6.62,3.676 13.505,7.459 17.916,12.989 -0.876,-2.998 -1.929,-5.911 -3.195,-8.706 M 513.401,265.11 c -0.873,0.396 -1.722,0.827 -2.554,1.286 -9.111,6.818 -8.751,17.933 -8.344,29.68 0.261,7.569 0.566,15.416 -1.902,22.047 2.118,-2.297 4.074,-4.698 5.819,-7.224 0.639,-0.924 1.238,-1.864 1.812,-2.813 -5.575,-18.2 -3.289,-33.562 5.258,-42.66 -0.03,-0.107 -0.055,-0.212 -0.089,-0.316 m -24.975,41.969 c -1.872,10.982 -3.802,21.213 -12.611,28.657 6.631,-2.99 12.688,-6.773 18.003,-11.196 7.253,-6.815 6.629,-17.461 6.252,-28.382 -0.252,-7.338 -0.492,-14.813 1.733,-21.247 -9.499,9.522 -11.474,21.019 -13.377,32.168 m -40.789,35.964 c 7.199,-0.649 14.13,-2.112 20.632,-4.326 13.581,-6.923 15.5,-18.779 17.759,-32.045 1.074,-6.297 2.168,-12.697 4.567,-18.845 -12.074,19.148 -21.699,43.82 -42.958,55.216 m 100.8,18.991 c 3.155,-6.505 5.472,-13.198 6.93,-19.913 1.062,-15.207 -8.109,-22.961 -18.315,-31.735 -4.841,-4.162 -9.762,-8.399 -13.796,-13.623 10.184,20.217 26.37,41.177 25.181,65.271 m 8.586,-19.995 v 0.095 h -0.02 c -1.856,8.036 -4.826,16.06 -8.9,23.77 -20.468,-18.746 -33.019,-37.93 -38.906,-54.898 -0.259,0.424 -0.489,0.857 -0.777,1.274 -3.596,5.214 -8.062,9.885 -13.176,13.977 -0.069,0.067 -0.132,0.137 -0.201,0.202 l -0.019,-0.026 c -7.401,5.875 -16.171,10.512 -25.829,13.664 -0.03,0.017 -0.054,0.032 -0.08,0.046 l -0.011,-0.014 c -7.843,2.551 -16.252,4.142 -24.96,4.622 12.383,-61.033 47.454,-90.176 71.74,-81.606 16.96,4.037 30.286,14.985 37.515,30.946 2.616,5.769 4.317,12.002 5.187,18.492 0.026,0.093 0.052,0.181 0.072,0.276 l -0.034,0.006 c 1.224,9.369 0.675,19.275 -1.601,29.174"
           style="fill:#000000;fill-opacity:1;fill-rule:nonzero;stroke:none"
           id="path104053"
           inkscape:connector-curvature="0" /><path
           d="m 548.175,241.772 c -5.336,-14.282 -16.901,-17.533 -29.827,-21.284 -6.128,-1.78 -12.366,-3.594 -18.204,-6.675 17.656,14.171 41.073,26.533 49.981,48.95 0.179,-7.227 -0.491,-14.28 -1.95,-20.991 m -11.184,-26.995 c -5.951,-7.979 -16.596,-8.568 -27.492,-9.437 -7.315,-0.578 -14.771,-1.193 -20.916,-4.13 8.389,10.514 19.587,13.786 30.447,16.939 10.699,3.114 20.64,6.186 27.039,15.784 -2.218,-6.924 -5.29,-13.372 -9.078,-19.156 m -12.123,-14.064 c -12.56,-10.969 -28.43,-15.265 -44.705,-12.144 0.295,0.914 0.628,1.811 0.989,2.684 5.743,9.831 16.821,10.736 28.542,11.668 7.552,0.6 15.382,1.184 21.688,4.386 -2.036,-2.362 -4.202,-4.577 -6.514,-6.594 M 478.05,189.099 c -0.63,0.719 -1.224,1.465 -1.788,2.225 -5.462,9.985 -0.531,19.949 4.714,30.467 3.373,6.785 6.909,13.794 7.415,20.851 0.975,-2.965 1.753,-5.962 2.295,-8.983 0.197,-1.108 0.355,-2.212 0.485,-3.314 -12.622,-14.247 -16.914,-29.17 -12.911,-40.998 -0.068,-0.082 -0.138,-0.167 -0.21,-0.248 m -5.321,48.547 c 2.853,10.765 5.339,20.878 0.408,31.305 4.797,-5.473 8.74,-11.424 11.742,-17.656 3.771,-9.211 -1.208,-18.635 -6.083,-28.412 -3.273,-6.578 -6.59,-13.282 -7.236,-20.058 -4.693,12.602 -1.721,23.883 1.169,34.821 m -22.202,49.639 c 6.283,-3.578 11.983,-7.783 16.981,-12.494 9.485,-11.928 6.316,-23.517 2.871,-36.521 -1.637,-6.179 -3.293,-12.455 -3.66,-19.041 -3.045,22.429 -1.575,48.87 -16.192,68.056 m 100.901,-20.861 c -26.401,-8.57 -45.776,-20.822 -58.166,-33.821 -0.063,0.494 -0.093,0.985 -0.181,1.48 -1.112,6.237 -3.238,12.343 -6.194,18.181 -0.036,0.091 -0.061,0.178 -0.1,0.271 l -0.029,-0.014 c -4.296,8.411 -10.356,16.268 -17.835,23.141 -0.02,0.028 -0.035,0.055 -0.057,0.075 l -0.01,-0.004 c -6.08,5.572 -13.071,10.503 -20.796,14.553 -14.043,-60.67 5.785,-101.735 31.434,-104.007 17.107,-3.362 33.776,1.075 46.973,12.6 4.774,4.167 8.908,9.134 12.389,14.675 0.06,0.077 0.124,0.146 0.179,0.225 l -0.029,0.014 c 4.998,8.022 8.607,17.26 10.643,27.214 0.013,0.033 0.026,0.058 0.041,0.089 l -0.02,0.007 c 1.644,8.081 2.267,16.616 1.758,25.321"
           style="fill:#000000;fill-opacity:1;fill-rule:nonzero;stroke:none"
           id="path104055"
           inkscape:connector-curvature="0" /><path
           d="m 503.879,155.768 c -10.306,-11.235 -22.242,-9.914 -35.63,-8.541 -6.35,0.648 -12.812,1.306 -19.377,0.64 21.682,6.515 48.023,9.188 64.691,26.629 -2.547,-6.764 -5.812,-13.053 -9.684,-18.728 m -20.493,-20.826 c -8.509,-5.166 -18.596,-1.717 -29.022,1.561 -7,2.209 -14.142,4.436 -20.936,4.017 11.715,6.599 23.322,5.435 34.574,4.286 11.085,-1.129 21.453,-2.008 30.981,4.484 -4.649,-5.587 -9.918,-10.41 -15.597,-14.348 m -16.514,-8.491 c -15.753,-5.457 -32.076,-3.492 -45.991,5.511 0.612,0.735 1.261,1.441 1.92,2.116 9.012,6.959 19.62,3.641 30.836,0.109 7.224,-2.276 14.703,-4.67 21.747,-4.066 -2.772,-1.429 -5.609,-2.668 -8.512,-3.67 m -48.577,9.527 c -1.318,11.303 6.992,18.691 15.798,26.474 5.672,5.022 11.579,10.195 14.694,16.546 -0.208,-3.114 -0.608,-6.182 -1.241,-9.187 -0.233,-1.098 -0.501,-2.182 -0.793,-3.253 -17.047,-8.474 -26.622,-20.699 -27.344,-33.162 -0.1,-0.049 -0.191,-0.105 -0.291,-0.152 -0.311,0.901 -0.584,1.817 -0.823,2.734 m 14.103,44.262 c 6.681,8.914 12.779,17.351 12.118,28.867 2.394,-6.871 3.813,-13.87 4.259,-20.768 0.045,-9.953 -8.11,-16.822 -16.292,-24.057 -5.502,-4.869 -11.092,-9.842 -14.23,-15.881 0.378,13.444 7.36,22.785 14.145,31.839 m -1.963,54.346 c 4.479,-5.67 8.186,-11.709 11.054,-17.95 4.319,-14.618 -2.969,-24.171 -11.038,-34.933 -3.834,-5.116 -7.722,-10.31 -10.534,-16.279 5.59,21.935 16.869,45.892 10.518,69.162 m 19.102,-66.718 c 0.129,0.48 0.282,0.945 0.389,1.442 1.309,6.198 1.625,12.654 1.077,19.173 -10e-4,0.097 0.011,0.188 0.011,0.288 l -0.036,-0.003 c -0.827,9.409 -3.496,18.967 -7.849,28.142 -0.009,0.034 -0.014,0.066 -0.025,0.092 l -0.014,-0.001 c -3.544,7.447 -8.176,14.639 -13.819,21.294 -35.774,-50.976 -32.799,-96.482 -9.871,-108.205 14.598,-9.534 31.709,-11.673 48.265,-5.942 5.989,2.075 11.687,5.128 16.992,8.957 0.086,0.053 0.166,0.091 0.247,0.143 l -0.018,0.028 c 7.642,5.556 14.452,12.766 20.077,21.232 0.023,0.023 0.041,0.042 0.064,0.065 l -0.012,0.015 c 4.555,6.873 8.334,14.55 11.127,22.812 -27.686,1.958 -50.242,-2.132 -66.605,-9.532"
           style="fill:#000000;fill-opacity:1;fill-rule:nonzero;stroke:none"
           id="path104057"
           inkscape:connector-curvature="0" /><path
           d="m 447.904,104.574 c -4.522,-5.636 -9.577,-10.604 -15.018,-14.796 -13.283,-7.481 -24.22,-2.518 -36.522,2.947 -5.834,2.587 -11.773,5.219 -18.219,6.625 22.632,-0.542 48.503,-6.183 69.759,5.224 M 406.938,76.347 c -9.693,-2.27 -18.209,4.142 -27.1,10.494 -5.97,4.275 -12.067,8.609 -18.656,10.319 13.186,2.638 23.856,-2.075 34.197,-6.663 10.187,-4.515 19.768,-8.568 30.844,-5.354 -6.159,-3.869 -12.662,-6.818 -19.285,-8.796 m -18.333,-2.945 c -16.67,-0.294 -31.577,6.642 -42.009,19.52 0.813,0.51 1.645,0.98 2.485,1.416 10.728,3.814 19.78,-2.633 29.346,-9.47 6.161,-4.408 12.525,-9.005 19.409,-10.62 -3.079,-0.498 -6.161,-0.794 -9.231,-0.846 m -43.22,24.143 c 2.258,11.152 12.452,15.593 23.241,20.258 6.95,3.01 14.171,6.094 19.104,11.166 -1.161,-2.897 -2.497,-5.69 -4.03,-8.349 -0.564,-0.975 -1.156,-1.921 -1.765,-2.848 -18.835,-2.758 -31.731,-11.408 -36.289,-23.029 -0.112,-0.015 -0.215,-0.041 -0.324,-0.055 -0.018,0.956 0.006,1.908 0.063,2.857 m 27.15,37.695 c 9.119,6.396 17.535,12.522 20.485,23.675 0.143,-7.274 -0.679,-14.368 -2.397,-21.065 -3.053,-9.474 -12.936,-13.47 -22.962,-17.808 -6.741,-2.92 -13.595,-5.909 -18.456,-10.677 4.531,12.662 14.069,19.373 23.33,25.875 m 15.011,52.268 c 2.498,-6.783 4.148,-13.673 4.934,-20.497 -0.431,-15.239 -10.326,-22.055 -21.338,-29.78 -5.235,-3.672 -10.545,-7.4 -15.071,-12.203 12.125,19.118 30.287,38.387 31.475,62.48 M 325.899,88.097 c -1.114,-0.332 -2.505,-0.602 -4.032,-1.156 -1.53,-0.527 -3.26,-1.115 -5.146,-1.762 -1.843,-0.754 -3.839,-1.571 -5.95,-2.439 -1.915,-0.89 -3.917,-1.86 -5.968,-2.874 -0.166,-0.083 -0.326,-0.158 -0.492,-0.242 -0.782,-0.448 -1.595,-0.885 -2.403,-1.323 -0.307,-0.165 -0.602,-0.332 -0.912,-0.499 -1.122,-0.617 -2.249,-1.258 -3.346,-1.966 -0.78,-0.478 -1.558,-0.975 -2.337,-1.465 -1.444,-0.917 -2.88,-1.858 -4.274,-2.87 -2.207,-1.466 -4.247,-3.159 -6.321,-4.732 -1.97,-1.702 -3.994,-3.277 -5.759,-5.019 -1.834,-1.666 -3.506,-3.372 -5.055,-5.023 -1.546,-1.651 -2.934,-3.282 -4.166,-4.815 -1.204,-1.556 -2.303,-2.981 -3.14,-4.329 -0.932,-1.311 -1.522,-2.498 -2.064,-3.456 -0.571,-0.915 -0.841,-1.872 -1.11,-2.412 -0.242,-0.575 -0.37,-0.88 -0.37,-0.88 l -2.232,0.963 c 0,0 0.138,0.305 0.396,0.871 0.301,0.568 0.541,1.399 1.215,2.463 0.621,1.056 1.347,2.379 2.336,3.69 0.918,1.385 2.095,2.824 3.381,4.389 1.313,1.54 2.78,3.17 4.404,4.807 1.631,1.639 3.381,3.329 5.29,4.968 1.844,1.712 3.937,3.257 5.983,4.919 2.145,1.535 4.256,3.182 6.526,4.602 1.301,0.887 2.634,1.717 3.975,2.52 0.937,0.564 1.88,1.122 2.819,1.662 0.963,0.585 1.953,1.102 2.938,1.612 0.308,0.16 0.605,0.332 0.912,0.486 1.002,0.507 2.001,1.006 2.961,1.522 0.002,0 0.005,0.002 0.005,0.002 2.273,1.052 4.481,2.043 6.584,2.949 2.144,0.808 4.173,1.574 6.047,2.28 1.908,0.59 3.66,1.135 5.208,1.614 1.544,0.51 2.947,0.745 4.07,1.045 2.267,0.541 3.562,0.85 3.562,0.85 0,0 -1.287,-0.346 -3.535,-0.952 M 311.64,72.507 c 2.274,-1.42 4.383,-3.071 6.527,-4.606 2.046,-1.658 4.141,-3.203 5.983,-4.915 1.908,-1.639 3.661,-3.329 5.289,-4.968 1.626,-1.637 3.094,-3.267 4.408,-4.807 1.285,-1.565 2.46,-3.004 3.38,-4.389 0.989,-1.311 1.712,-2.634 2.334,-3.69 0.675,-1.064 0.913,-1.895 1.217,-2.463 0.257,-0.566 0.397,-0.871 0.397,-0.871 l -2.234,-0.963 c 0,0 -0.128,0.305 -0.371,0.88 -0.266,0.54 -0.539,1.497 -1.108,2.411 -0.541,0.959 -1.134,2.146 -2.064,3.457 -0.835,1.348 -1.936,2.773 -3.141,4.329 -1.232,1.533 -2.619,3.164 -4.165,4.815 -1.553,1.651 -3.222,3.357 -5.055,5.023 -1.766,1.739 -3.79,3.317 -5.761,5.019 -2.073,1.573 -4.112,3.266 -6.321,4.732 -1.392,1.012 -2.83,1.95 -4.274,2.866 0.331,0.224 0.658,0.446 0.986,0.66 1.341,-0.803 2.675,-1.633 3.973,-2.52 M 291.225,82.74 c -2.111,0.864 -4.107,1.685 -5.95,2.439 -1.887,0.647 -3.615,1.235 -5.149,1.762 -1.524,0.554 -2.916,0.824 -4.031,1.156 -2.248,0.606 -3.533,0.952 -3.533,0.952 0,0 1.294,-0.309 3.559,-0.85 1.125,-0.3 2.528,-0.535 4.07,-1.045 1.553,-0.479 3.303,-1.024 5.212,-1.614 1.871,-0.706 3.9,-1.472 6.044,-2.28 2.105,-0.906 4.313,-1.897 6.584,-2.949 10e-4,0 0.003,-0.002 0.003,-0.002 -0.28,-0.143 -0.562,-0.3 -0.843,-0.445 -2.048,1.016 -4.053,1.986 -5.966,2.876 M 213.39,73.402 c -3.07,0.052 -6.152,0.348 -9.232,0.846 6.884,1.615 13.25,6.212 19.411,10.62 9.563,6.837 18.618,13.284 29.345,9.47 0.838,-0.436 1.671,-0.906 2.482,-1.416 C 244.964,80.044 230.06,73.108 213.39,73.402 m -18.335,2.945 c -6.623,1.978 -13.127,4.927 -19.285,8.796 11.075,-3.214 20.659,0.839 30.844,5.354 10.34,4.588 21.012,9.301 34.199,6.663 -6.591,-1.71 -12.688,-6.044 -18.655,-10.319 -8.892,-6.352 -17.41,-12.764 -27.103,-10.494 m -40.967,28.227 c 21.259,-11.407 47.13,-5.766 69.761,-5.224 -6.447,-1.406 -12.387,-4.038 -18.219,-6.625 -12.3,-5.465 -23.239,-10.428 -36.522,-2.947 -5.442,4.192 -10.497,9.16 -15.02,14.796 m 64.208,16.046 c -1.536,2.659 -2.87,5.452 -4.032,8.349 4.934,-5.072 12.154,-8.156 19.106,-11.166 10.787,-4.665 20.981,-9.106 23.236,-20.258 0.059,-0.949 0.083,-1.901 0.067,-2.857 -0.108,0.014 -0.214,0.04 -0.323,0.055 -4.557,11.621 -17.457,20.271 -36.292,23.029 -0.608,0.927 -1.201,1.873 -1.762,2.848 m -9.321,38.295 c 2.949,-11.153 11.364,-17.279 20.484,-23.675 9.258,-6.502 18.799,-13.213 23.332,-25.875 -4.861,4.768 -11.717,7.757 -18.458,10.677 -10.025,4.338 -19.909,8.334 -22.961,17.808 -1.719,6.697 -2.54,13.791 -2.397,21.065 m 5.474,28.593 c 1.185,-24.093 19.349,-43.362 31.473,-62.48 -4.526,4.803 -9.837,8.531 -15.069,12.203 -11.013,7.725 -20.907,14.541 -21.339,29.78 0.788,6.824 2.436,13.714 4.935,20.497 m 170.537,-69.355 c 0.271,0.419 0.567,0.813 0.818,1.25 3.168,5.488 5.476,11.525 6.977,17.893 0.03,0.093 0.07,0.177 0.101,0.272 l -0.033,0.005 c 2.136,9.2 2.565,19.116 1.277,29.19 -0.002,0.037 0.007,0.065 0.006,0.095 l -0.015,0.003 c -1.06,8.178 -3.226,16.453 -6.523,24.531 -47.415,-35.53 -59.926,-77.229 -45.401,-96.926 -6.422,-0.996 -23.399,-4.228 -41.196,-12.706 -17.796,8.478 -34.772,11.71 -41.194,12.706 14.523,19.697 2.01,61.396 -45.402,96.926 -3.297,-8.078 -5.466,-16.353 -6.524,-24.531 l -0.013,-0.003 c -0.003,-0.03 0.006,-0.058 0.005,-0.095 -1.289,-10.074 -0.859,-19.99 1.279,-29.19 l -0.035,-0.005 c 0.031,-0.095 0.069,-0.179 0.097,-0.272 1.504,-6.368 3.812,-12.405 6.981,-17.893 0.253,-0.437 0.546,-0.831 0.817,-1.25 -17.851,1.955 -40.563,-1.16 -66.275,-11.619 5.222,-6.985 11.199,-13.111 17.663,-18.23 l -0.01,-0.017 c 0.029,-0.016 0.055,-0.026 0.086,-0.043 7.973,-6.3 16.685,-11.038 25.675,-13.95 l -0.01,-0.029 c 0.092,-0.027 0.183,-0.035 0.279,-0.058 6.236,-1.996 12.596,-3.128 18.934,-3.239 16.677,-0.292 31.611,6.365 42.424,18.738 5,-0.506 19.533,-2.982 35.799,-12.932 C 278.292,68.982 265.53,57.968 257.388,42.443 l 13.052,-9.849 c 8.855,17.168 19.754,29.193 30.557,37.638 10.805,-8.445 21.706,-20.47 30.558,-37.638 l 13.053,9.849 c -8.145,15.525 -20.905,26.539 -34.187,34.331 16.267,9.95 30.802,12.426 35.8,12.932 10.811,-12.373 25.747,-19.03 42.423,-18.738 6.336,0.111 12.7,1.243 18.933,3.239 0.099,0.023 0.188,0.031 0.281,0.058 l -0.011,0.029 c 8.992,2.912 17.704,7.65 25.675,13.95 0.03,0.017 0.058,0.027 0.086,0.043 l -0.009,0.017 c 6.465,5.119 12.441,11.245 17.663,18.23 -25.713,10.459 -48.423,13.574 -66.276,11.619"
           style="fill:#000000;fill-opacity:1;fill-rule:nonzero;stroke:none"
           id="path104059"
           inkscape:connector-curvature="0" /></g></g></g></svg>